<svg width="272" height="182" viewBox="0 0 272 182" fill="none" xmlns="http://www.w3.org/2000/svg">
<path d="M68.2684 26.0587H34.9973V74.4635H68.2684V26.0587Z" fill="#E0E0E0"/>
<path d="M66.6001 26.0587H33.329V74.4635H66.6001V26.0587Z" fill="#F5F5F5"/>
<path d="M62.4693 31.3004H37.4634V69.2183H62.4693V31.3004Z" fill="white"/>
<path d="M62.4694 69.2219C62.4694 69.2219 62.4694 69.1563 62.4694 69.0362C62.4694 68.9161 62.4694 68.7305 62.4694 68.4975C62.4694 68.0207 62.4694 67.3218 62.4694 66.4191C62.4694 64.5991 62.4694 61.9528 62.444 58.6076C62.444 51.9209 62.4222 42.4497 62.4041 31.3076L62.4875 31.3913H37.4852L37.5759 31.3003C37.5759 45.6055 37.5759 58.7933 37.5759 69.2219L37.5034 69.1491L55.7056 69.1855L60.7322 69.2037H62.0523H62.5093H62.0668H60.7612H55.7491L37.5034 69.2401H37.4308V69.1673C37.4308 58.7387 37.4308 45.5509 37.4308 31.2457V31.1547H37.5251H62.5274H62.6108V31.304C62.6108 42.4788 62.5782 51.9646 62.5709 58.6659C62.5709 62.0037 62.5528 64.6427 62.5455 66.4555C62.5455 67.3545 62.5455 68.0461 62.5455 68.5193C62.5455 68.7487 62.5455 68.927 62.5455 69.0471C62.5455 69.1673 62.4694 69.2219 62.4694 69.2219Z" fill="#E0E0E0"/>
<path d="M66.698 26.0587C66.526 26.3683 66.327 26.6618 66.1032 26.936C65.7188 27.4529 65.1676 28.159 64.5438 28.9234C63.92 29.6878 63.3325 30.3612 62.8973 30.8417C62.6786 31.1131 62.4358 31.3641 62.1719 31.5915C62.3598 31.2963 62.5721 31.0174 62.8066 30.758L64.4096 28.8069L66.0053 26.845C66.2136 26.5637 66.4454 26.3007 66.698 26.0587Z" fill="#E0E0E0"/>
<path d="M62.5963 69.0981C63.838 71.0764 65.2979 72.908 66.9483 74.5581L62.5963 69.0981Z" fill="white"/>
<path d="M66.9592 74.5727C66.6801 74.3703 66.4246 74.1371 66.1976 73.8774C65.6177 73.2858 65.0682 72.665 64.5511 72.0174C63.949 71.2566 63.4449 70.5323 63.1004 69.9972C62.9022 69.7149 62.7322 69.4138 62.5927 69.0981C62.817 69.358 63.0218 69.6342 63.2056 69.9244C63.5682 70.4413 64.0905 71.1474 64.6889 71.9009C65.2873 72.6544 65.8675 73.3169 66.2882 73.7901C66.5302 74.0345 66.7545 74.296 66.9592 74.5727Z" fill="#E0E0E0"/>
<path d="M33.3254 74.4234L37.6774 69.0289L33.3254 74.4234Z" fill="white"/>
<path d="M37.6847 69.0289C37.0283 69.9829 36.3238 70.9026 35.574 71.7844C34.8723 72.7041 34.1217 73.585 33.3254 74.4234C33.9819 73.4695 34.6864 72.5498 35.4362 71.6679C36.1378 70.7483 36.8884 69.8674 37.6847 69.0289Z" fill="#E0E0E0"/>
<path d="M33.329 26.0587C34.0809 26.8686 34.7879 27.7192 35.447 28.6067C36.1529 29.4541 36.8115 30.34 37.4199 31.2603C36.6694 30.4503 35.9636 29.5997 35.3056 28.7123C34.5988 27.8648 33.9389 26.979 33.329 26.0587Z" fill="#E0E0E0"/>
<path d="M54.6792 38.9989H46.3052V62.8591H54.6792V38.9989Z" fill="#E0E0E0"/>
<path d="M113.127 19.0044V40.2038H82.7932L81.7015 19.1537L113.127 19.0044Z" fill="#E0E0E0"/>
<path d="M81.6979 19.1537V40.1565H112.031V19.1537L81.6979 19.1537Z" fill="white"/>
<path d="M112.176 40.3021H81.5565V19.0081H112.176V40.3021ZM81.8466 40.0145H111.89V19.292H81.8466V40.0145Z" fill="#E0E0E0"/>
<path d="M108.749 21.7635H84.9873V37.5466H108.749V21.7635Z" fill="white"/>
<path d="M108.749 21.7635H108.292H106.987H102.091L84.9873 21.84L85.0562 21.7708C85.0562 26.5938 85.0562 31.9373 85.0562 37.5539L84.9837 37.4811H108.746L108.684 37.5393C108.684 32.7381 108.709 28.8033 108.717 26.0551C108.717 24.6865 108.717 23.6163 108.717 22.881C108.717 22.517 108.717 22.2404 108.717 22.0475C108.717 21.8545 108.717 21.7563 108.717 21.7563C108.717 21.7563 108.717 21.8473 108.717 22.0329C108.717 22.2185 108.717 22.4988 108.717 22.8555C108.717 23.5835 108.717 24.6537 108.735 26.0187C108.735 28.7705 108.753 32.7236 108.764 37.5393V37.6012H108.706H84.9438H84.8676V37.5247C84.8676 31.9082 84.8676 26.5647 84.8676 21.7417V21.6944H84.9365L102.087 21.7271L106.969 21.749H108.26H108.698L108.749 21.7635Z" fill="#E0E0E0"/>
<path d="M81.7015 19.0954C81.889 19.1859 82.0645 19.2996 82.2238 19.4339C82.532 19.6596 82.9491 19.9799 83.4133 20.3439C83.8775 20.7079 84.2692 21.0719 84.5521 21.3158C84.7139 21.4477 84.86 21.5979 84.9873 21.7635C84.4094 21.358 83.8526 20.923 83.319 20.4604C82.7516 20.0403 82.2113 19.5844 81.7015 19.0954Z" fill="#E0E0E0"/>
<path d="M112.035 19.1537C111.536 19.6463 111.003 20.1024 110.439 20.5187C109.906 20.973 109.341 21.389 108.749 21.7636C109.248 21.271 109.781 20.8148 110.345 20.3986C110.878 19.9432 111.442 19.5272 112.035 19.1537Z" fill="#E0E0E0"/>
<path d="M112.01 40.1601L108.626 37.4083L112.01 40.1601Z" fill="white"/>
<path d="M108.626 37.4083C109.234 37.8087 109.816 38.2489 110.367 38.7259C110.946 39.1665 111.495 39.6456 112.01 40.1601C111.401 39.762 110.82 39.3217 110.272 38.8424C109.691 38.4037 109.141 37.9245 108.626 37.4083Z" fill="#E0E0E0"/>
<path d="M81.7015 40.1565C82.1943 39.6699 82.7216 39.2198 83.2791 38.8097C83.8067 38.3593 84.3654 37.9469 84.951 37.5757C84.4598 38.0651 83.9324 38.5165 83.3734 38.9261C82.8464 39.3761 82.2876 39.7873 81.7015 40.1565Z" fill="#E0E0E0"/>
<path d="M89.8108 26.6812V31.9665H104.764V26.6812H89.8108Z" fill="#E0E0E0"/>
<path d="M236.709 113.994C236.709 113.994 233.985 112.72 231.849 119.126C229.713 125.533 229.078 129.14 229.078 129.14C229.078 129.14 228.465 130.509 227.49 129.821C226.514 129.133 225.002 126.996 223.613 127.637C222.224 128.277 221.927 130.054 222.583 132.489C223.239 134.924 224.483 140.307 224.592 140.795C224.701 141.283 224.531 142.029 223.794 141.669C223.058 141.308 218.554 137.577 216.904 139.823C215.254 142.069 218.206 148.559 218.514 149.265C218.822 149.972 218.724 150.321 218.398 150.558C218.071 150.794 216.682 149.396 215.359 148.374C214.035 147.351 212.327 146.43 211.489 147.806C210.651 149.182 211.087 154.31 217.132 161.838L220.16 165.139L224.56 164.226C233.855 161.696 237.206 157.801 237.333 156.192C237.46 154.584 235.519 154.336 233.869 154.372C232.219 154.409 230.264 154.718 230.141 154.332C230.018 153.946 230.141 153.604 230.801 153.24C231.461 152.876 237.637 149.327 237.63 146.543C237.623 143.758 231.795 144.129 230.986 143.995C230.177 143.86 230.482 143.139 230.848 142.815C231.215 142.491 235.378 138.859 237.333 137.275C239.287 135.692 240.122 134.123 239.338 132.744C238.555 131.364 236.111 132.248 234.921 132.23C233.731 132.212 234.032 130.742 234.032 130.742C234.032 130.742 235.628 127.466 237.659 121.005C239.69 114.544 236.651 113.987 236.651 113.987" fill="#EBEBEB"/>
<path d="M219.587 166.053C221.089 161.321 223.896 152.967 226.271 145.778C228.647 138.589 230.79 132.085 232.317 127.367C233.075 125.009 233.688 123.101 234.13 121.776C234.344 121.121 234.493 120.608 234.624 120.255C234.679 120.087 234.723 119.956 234.754 119.862C234.783 119.771 234.801 119.727 234.801 119.727C234.801 119.727 234.801 119.774 234.765 119.865C234.729 119.956 234.7 120.091 234.649 120.262C234.54 120.626 234.384 121.132 234.181 121.791C233.775 123.119 233.177 125.034 232.422 127.396C230.921 132.128 228.796 138.637 226.42 145.822C224.045 153.007 221.219 161.365 219.693 166.082" fill="#E0E0E0"/>
<path d="M225.611 130.705C225.672 130.795 225.724 130.89 225.767 130.989C225.862 131.175 225.988 131.451 226.13 131.79C226.438 132.471 226.855 133.421 227.258 134.476C227.66 135.532 228.041 136.46 228.346 137.181C228.473 137.505 228.585 137.781 228.672 138C228.722 138.096 228.758 138.199 228.781 138.305C228.721 138.216 228.669 138.121 228.625 138.022C228.531 137.836 228.404 137.563 228.262 137.221C227.961 136.536 227.573 135.583 227.153 134.527C226.732 133.472 226.355 132.547 226.065 131.83L225.731 131.011C225.678 130.914 225.638 130.812 225.611 130.705Z" fill="#E0E0E0"/>
<path d="M229.205 138.32C229.187 138.284 231.102 137.374 233.481 136.282C235.86 135.19 237.797 134.338 237.833 134.374C237.869 134.411 235.933 135.321 233.554 136.409C231.175 137.497 229.205 138.36 229.205 138.32Z" fill="#E0E0E0"/>
<path d="M225.049 149.196C225.155 149.162 225.265 149.14 225.376 149.131L226.264 149C227.011 148.891 228.048 148.734 229.184 148.516C230.319 148.297 231.338 148.075 232.085 147.9L232.959 147.7C233.065 147.667 233.175 147.648 233.285 147.642C233.185 147.688 233.081 147.724 232.973 147.751C232.77 147.813 232.477 147.9 232.11 147.999C231.385 148.195 230.355 148.439 229.209 148.654C228.063 148.869 227.033 149.018 226.275 149.098C225.912 149.142 225.593 149.171 225.379 149.185C225.27 149.199 225.159 149.202 225.049 149.196Z" fill="#E0E0E0"/>
<path d="M220.298 143.019C220.377 143.085 220.447 143.159 220.509 143.241L221.042 143.882C221.488 144.424 222.093 145.181 222.757 146.022C223.421 146.863 224.019 147.627 224.443 148.188L224.94 148.854C225.005 148.933 225.063 149.019 225.111 149.109C225.031 149.045 224.961 148.97 224.9 148.887L224.367 148.25C223.921 147.704 223.316 146.95 222.648 146.11C221.981 145.269 221.39 144.501 220.966 143.944L220.469 143.278C220.402 143.199 220.345 143.112 220.298 143.019Z" fill="#E0E0E0"/>
<path d="M215.424 152.152C215.522 152.238 215.611 152.335 215.689 152.44C215.87 152.651 216.099 152.927 216.374 153.255C216.951 153.947 217.734 154.911 218.597 155.981C219.46 157.051 220.233 158.023 220.773 158.733L221.426 159.574C221.509 159.675 221.583 159.784 221.647 159.898C221.552 159.809 221.463 159.713 221.383 159.61L220.697 158.795C220.124 158.1 219.337 157.139 218.474 156.069C217.611 154.998 216.838 154.027 216.298 153.317C216.037 152.978 215.816 152.694 215.649 152.472C215.564 152.373 215.488 152.266 215.424 152.152Z" fill="#E0E0E0"/>
<path d="M221.589 159.669C221.722 159.628 221.858 159.598 221.996 159.578L223.116 159.374C224.063 159.199 225.368 158.951 226.801 158.646C228.233 158.34 229.525 158.02 230.457 157.783L231.563 157.506C231.697 157.466 231.834 157.437 231.973 157.419C231.845 157.477 231.713 157.523 231.577 157.557C231.32 157.637 230.946 157.75 230.489 157.878C229.561 158.14 228.273 158.471 226.837 158.78C225.401 159.09 224.092 159.326 223.142 159.476C222.666 159.552 222.278 159.607 222.014 159.639C221.873 159.663 221.731 159.672 221.589 159.669Z" fill="#E0E0E0"/>
<path d="M244.8 165.922C244.8 165.973 194.973 166.017 133.527 166.017C72.08 166.017 22.2532 165.984 22.2532 165.922C22.2532 165.86 72.0691 165.827 133.541 165.827C195.013 165.827 244.8 165.871 244.8 165.922Z" fill="#263238"/>
<path d="M176.748 39.2481L173.297 42.2103L177.903 47.6159L181.354 44.6536L176.748 39.2481Z" fill="#263238"/>
<path d="M179.73 38.8279L172.629 44.9504L167.65 39.1264C169.608 36.3673 171.944 34.2852 174.74 33.0039L179.73 38.8279Z" fill="#455A64"/>
<path d="M173.826 43.9239C173.786 43.9603 172.586 42.6353 171.142 40.9719C169.699 39.3084 168.56 37.9325 168.604 37.8961C168.647 37.8597 169.844 39.1846 171.287 40.8481C172.731 42.5116 173.866 43.8911 173.826 43.9239Z" fill="#263238"/>
<path d="M175.168 42.7591C174.881 42.4789 174.614 42.1784 174.37 41.86C173.891 41.2958 173.242 40.5132 172.528 39.6396L170.714 37.3974L170.17 36.7167C170.04 36.5493 169.971 36.4728 169.971 36.4619C170.044 36.3964 171.251 37.7759 172.68 39.5195C173.405 40.3931 174.029 41.1903 174.493 41.7763C174.747 42.0833 174.972 42.4122 175.168 42.7591Z" fill="#263238"/>
<path d="M176.981 41.2048C176.69 40.9255 176.42 40.625 176.173 40.3057C175.69 39.7342 175.037 38.9371 174.319 38.0526L172.506 35.7739L171.962 35.0787C171.892 34.9958 171.828 34.9069 171.773 34.813C172.085 35.0713 172.365 35.3658 172.608 35.6902C173.097 36.2544 173.757 37.0479 174.472 37.9324C175.186 38.817 175.828 39.6287 176.285 40.222C176.544 40.5294 176.777 40.8582 176.981 41.2048Z" fill="#263238"/>
<path d="M178.617 39.7488C178.577 39.7816 177.384 38.4457 175.951 36.764C174.519 35.0823 173.395 33.6882 173.434 33.6518C173.474 33.6154 174.664 34.9549 176.096 36.6402C177.529 38.3256 178.657 39.716 178.617 39.7488Z" fill="#263238"/>
<path d="M237.516 42.9276L234.379 39.6329L229.256 44.5468L232.393 47.8416L237.516 42.9276Z" fill="#263238"/>
<path d="M237.666 46.1698L231.204 39.3812L236.727 34.085C239.57 35.905 241.768 38.1363 243.186 40.8736L237.666 46.1698Z" fill="#455A64"/>
<path d="M232.284 40.5205C232.248 40.4804 233.499 39.2064 235.08 37.674C236.662 36.1416 237.982 34.9294 238.007 34.9658C238.033 35.0022 236.792 36.2762 235.211 37.8123C233.63 39.3484 232.321 40.5569 232.284 40.5205Z" fill="#263238"/>
<path d="M233.517 41.8127C233.775 41.507 234.057 41.2222 234.359 40.9609C234.892 40.4513 235.639 39.7561 236.47 38.9917L238.606 37.0516L239.255 36.4692C239.411 36.3309 239.487 36.2617 239.498 36.2581C239.567 36.3272 238.258 37.6121 236.597 39.1337C235.766 39.8944 235.004 40.5897 234.446 41.0592C234.157 41.3345 233.846 41.5864 233.517 41.8127Z" fill="#263238"/>
<path d="M235.157 43.5344C235.418 43.2259 235.703 42.9386 236.009 42.6754C236.549 42.1621 237.307 41.4632 238.152 40.6988L240.328 38.7551L240.992 38.1727C241.073 38.1003 241.158 38.0323 241.246 37.9688C241.006 38.2955 240.728 38.5924 240.419 38.8534C239.882 39.3739 239.124 40.0764 238.283 40.8408C237.441 41.6052 236.665 42.2968 236.107 42.7773C235.81 43.0538 235.492 43.3069 235.157 43.5344Z" fill="#263238"/>
<path d="M236.691 45.1033C236.655 45.0632 237.924 43.8001 239.523 42.275C241.123 40.7498 242.45 39.5486 242.486 39.5886C242.523 39.6287 241.253 40.8918 239.654 42.4133C238.054 43.9348 236.727 45.136 236.691 45.1033Z" fill="#263238"/>
<path d="M208.562 27.1981H203.188V35.6174H208.562V27.1981Z" fill="#263238"/>
<path d="M211.435 29.717H200.373V20.6424C204.25 19.6815 207.949 19.6232 211.446 20.6424L211.435 29.717Z" fill="#3F72AF"/>
<path d="M211.576 20.6789C211.447 20.7602 211.309 20.8285 211.166 20.8827C210.788 21.0501 210.399 21.1935 210.002 21.3122C209.408 21.4959 208.802 21.6394 208.189 21.7417C207.444 21.8604 206.691 21.9237 205.937 21.931C205.183 21.9321 204.43 21.8762 203.685 21.7636C203.071 21.6682 202.466 21.5307 201.871 21.3523C201.474 21.2357 201.084 21.0959 200.703 20.9337C200.559 20.8835 200.422 20.8163 200.294 20.7335C200.294 20.7007 200.903 20.9519 201.907 21.2212C202.497 21.3776 203.095 21.4992 203.699 21.5852C204.437 21.6855 205.181 21.7365 205.926 21.7381C206.671 21.7296 207.415 21.6712 208.153 21.5634C208.754 21.4761 209.349 21.3546 209.937 21.1994C210.967 20.9045 211.562 20.6461 211.576 20.6789Z" fill="#263238"/>
<path d="M204.029 29.6915C203.978 29.6915 203.935 27.9479 203.935 25.8003C203.935 23.6527 203.978 21.9092 204.029 21.9092C204.08 21.9092 204.123 23.6491 204.123 25.8003C204.123 27.9516 204.083 29.6915 204.029 29.6915Z" fill="#263238"/>
<path d="M206.136 29.7424C206.085 29.7424 206.042 27.9916 206.042 25.8331C206.042 23.6746 206.085 21.9274 206.136 21.9274C206.187 21.9274 206.23 23.6746 206.23 25.8331C206.23 27.9916 206.191 29.7424 206.136 29.7424Z" fill="#263238"/>
<path d="M208.243 29.7097C208.192 29.7097 208.149 27.9588 208.149 25.8003C208.149 23.6418 208.192 21.891 208.243 21.891C208.294 21.891 208.338 23.6418 208.338 25.8003C208.338 27.9588 208.298 29.7097 208.243 29.7097Z" fill="#263238"/>
<path d="M209.984 29.7097C209.93 29.7097 209.89 27.8169 209.89 25.4836C209.89 23.1504 209.93 21.2576 209.984 21.2576C210.038 21.2576 210.078 23.1504 210.078 25.4836C210.078 27.8169 210.049 29.7097 209.984 29.7097Z" fill="#263238"/>
<path d="M202.038 29.6551C201.987 29.6551 201.944 27.7623 201.944 25.429C201.944 23.0958 201.987 21.203 202.038 21.203C202.089 21.203 202.132 23.0958 202.132 25.429C202.132 27.7623 202.092 29.6551 202.038 29.6551Z" fill="#263238"/>
<path d="M232.878 100.017C248.15 84.6888 248.15 59.837 232.878 44.5088C217.606 29.1807 192.845 29.1807 177.573 44.5088C162.301 59.837 162.301 84.6888 177.573 100.017C192.845 115.345 217.606 115.345 232.878 100.017Z" fill="#3F72AF"/>
<path d="M205.226 104.916C223.365 104.916 238.069 90.1573 238.069 71.9519C238.069 53.7465 223.365 38.9881 205.226 38.9881C187.087 38.9881 172.383 53.7465 172.383 71.9519C172.383 90.1573 187.087 104.916 205.226 104.916Z" fill="#FAFAFA"/>
<path d="M238.069 71.9519C238.069 71.9519 238.069 71.7735 238.044 71.4204C238.018 71.0674 238.044 70.5396 237.975 69.8516C237.845 67.8444 237.532 65.8534 237.039 63.9038C236.684 62.4967 236.234 61.1152 235.693 59.7688C235.058 58.1635 234.294 56.6126 233.409 55.1314C231.243 51.5128 228.412 48.3396 225.067 45.7803C221.008 42.6803 216.282 40.5762 211.268 39.636C207.018 38.8511 202.657 38.9018 198.426 39.7852C196.94 40.1089 195.477 40.5283 194.045 41.041C187.951 43.2688 182.651 47.2572 178.813 52.5034C177.811 53.8695 176.919 55.3131 176.144 56.8204C175.741 57.5739 175.397 58.3565 175.056 59.1427C174.715 59.929 174.41 60.7443 174.153 61.5742C173.596 63.235 173.179 64.9396 172.905 66.6702C172.63 68.4199 172.485 70.1878 172.473 71.9592C172.486 73.7315 172.629 75.5005 172.901 77.2517C173.179 78.9815 173.596 80.6857 174.149 82.3477C174.41 83.174 174.736 83.9748 175.052 84.7756C175.368 85.5764 175.748 86.3481 176.14 87.1016C176.915 88.6097 177.809 90.0533 178.813 91.4186C182.65 96.6666 187.951 100.656 194.045 102.885C195.477 103.397 196.94 103.817 198.426 104.14C199.874 104.444 201.342 104.65 202.818 104.756C205.643 104.97 208.483 104.813 211.268 104.29C216.282 103.349 221.008 101.245 225.067 98.1453C228.413 95.5871 231.244 92.4137 233.409 88.7942C234.293 87.3126 235.057 85.7617 235.693 84.1568C236.982 80.9385 237.752 77.535 237.975 74.074C238.036 73.386 238.025 72.8582 238.044 72.5052C238.062 72.1521 238.069 71.9701 238.069 71.9701C238.069 71.9701 238.069 72.1521 238.069 72.5052C238.069 72.8582 238.069 73.386 238.018 74.074C237.82 77.5448 237.064 80.9606 235.781 84.1896C235.149 85.8022 234.387 87.3605 233.503 88.8488C231.342 92.4857 228.511 95.6765 225.162 98.2509C221.088 101.37 216.343 103.489 211.308 104.439C208.511 104.969 205.657 105.131 202.818 104.919C201.334 104.814 199.86 104.608 198.404 104.304C196.909 103.982 195.437 103.561 193.998 103.045C187.868 100.808 182.536 96.7996 178.675 91.5242C177.667 90.1516 176.77 88.7007 175.991 87.1853C175.585 86.4282 175.237 85.6346 174.882 84.8448C174.526 84.0549 174.236 83.2359 173.975 82.4023C173.419 80.7335 172.999 79.0219 172.72 77.2845C172.145 73.7602 172.145 70.1654 172.72 66.6411C173 64.9112 173.42 63.2069 173.975 61.5451C174.24 60.7116 174.566 59.9071 174.885 59.1027C175.204 58.2982 175.585 57.5229 175.991 56.7658C176.772 55.2511 177.671 53.8003 178.679 52.4269C182.538 47.1522 187.869 43.1443 193.998 40.91C195.436 40.3944 196.907 39.9737 198.4 39.6505C199.858 39.3467 201.333 39.1412 202.818 39.0354C205.655 38.8238 208.508 38.9853 211.304 39.5158C216.341 40.4617 221.086 42.5813 225.158 45.7038C228.508 48.2798 231.338 51.4718 233.499 55.1096C235.124 57.8556 236.345 60.8224 237.126 63.9184C237.61 65.8748 237.912 67.872 238.029 69.8844C238.083 70.5723 238.065 71.1001 238.08 71.4532C238.094 71.8063 238.069 71.9519 238.069 71.9519Z" fill="#263238"/>
<path d="M233.249 70.758C232.208 70.8017 231.36 70.758 231.356 70.667C231.352 70.576 232.19 70.4522 233.231 70.394C234.272 70.3357 235.12 70.3721 235.128 70.4813C235.135 70.5905 234.283 70.7143 233.249 70.758Z" fill="#263238"/>
<path d="M232.549 78.3474C231.534 78.1071 230.736 77.8414 230.736 77.7504C230.736 77.6594 231.599 77.7686 232.618 77.9907C233.637 78.2127 234.431 78.4821 234.431 78.5876C234.431 78.6932 233.557 78.584 232.549 78.3474Z" fill="#263238"/>
<path d="M229.84 85.4636C228.922 84.9613 228.219 84.4844 228.262 84.4043C228.306 84.3243 229.089 84.6555 230.01 85.1323C230.932 85.6092 231.639 86.1006 231.588 86.1952C231.537 86.2899 230.754 85.9695 229.84 85.4636Z" fill="#263238"/>
<path d="M225.325 91.5933C224.578 90.8653 224.023 90.2174 224.088 90.1373C224.153 90.0573 224.813 90.5996 225.575 91.3203C226.337 92.0411 226.884 92.6853 226.812 92.7763C226.739 92.8673 226.068 92.325 225.325 91.5933Z" fill="#263238"/>
<path d="M219.341 96.2889C218.819 95.3826 218.456 94.6109 218.536 94.5636C218.615 94.5162 219.116 95.2078 219.653 96.1033C220.189 96.9987 220.552 97.7704 220.461 97.8287C220.371 97.8869 219.867 97.188 219.341 96.2889Z" fill="#263238"/>
<path d="M212.323 99.1973C212.062 98.1817 211.921 97.3409 212.011 97.319C212.102 97.2972 212.396 98.0944 212.675 99.1027C212.954 100.111 213.092 100.952 212.987 100.981C212.882 101.01 212.584 100.209 212.323 99.1973Z" fill="#263238"/>
<path d="M204.783 100.1C204.783 99.0517 204.889 98.2036 204.979 98.2036C205.07 98.2036 205.146 99.0553 205.146 100.1C205.146 101.145 205.055 101.996 204.95 101.996C204.845 101.996 204.765 101.152 204.783 100.1Z" fill="#263238"/>
<path d="M197.291 98.9607C197.588 97.9561 197.9 97.1662 197.991 97.1917C198.081 97.2171 197.922 98.0543 197.628 99.0626C197.334 100.071 197.033 100.883 196.928 100.832C196.823 100.781 196.975 99.9653 197.291 98.9607Z" fill="#263238"/>
<path d="M190.353 95.8267C190.908 94.9421 191.419 94.2615 191.499 94.3088C191.579 94.3561 191.202 95.1241 190.661 96.0196C190.121 96.915 189.606 97.5921 189.515 97.5375C189.424 97.4829 189.798 96.7148 190.353 95.8267Z" fill="#263238"/>
<path d="M184.518 90.9491C185.29 90.2429 185.968 89.726 186.026 89.7952C186.084 89.8643 185.526 90.4977 184.764 91.2148C184.003 91.9318 183.332 92.4487 183.255 92.3723C183.179 92.2958 183.749 91.6552 184.518 90.9491Z" fill="#263238"/>
<path d="M180.195 84.681C181.127 84.2114 181.917 83.8947 181.957 83.9748C181.997 84.0549 181.286 84.5172 180.361 85.0049C179.437 85.4927 178.65 85.8094 178.599 85.7111C178.548 85.6128 179.266 85.1542 180.195 84.681Z" fill="#263238"/>
<path d="M177.707 77.481C178.733 77.2772 179.578 77.1862 179.596 77.2772C179.614 77.3682 178.802 77.6194 177.783 77.8378C176.764 78.0561 175.915 78.1471 175.893 78.0416C175.872 77.936 176.691 77.6849 177.707 77.481Z" fill="#263238"/>
<path d="M177.246 69.888C178.287 69.9644 179.125 70.1028 179.121 70.1938C179.117 70.2848 178.265 70.3103 177.224 70.2484C176.183 70.1865 175.342 70.0518 175.349 69.9426C175.357 69.8334 176.205 69.7934 177.246 69.888Z" fill="#263238"/>
<path d="M178.824 62.4151C179.807 62.7791 180.575 63.1431 180.546 63.2195C180.517 63.296 179.69 63.0994 178.704 62.7572C177.718 62.4151 176.949 62.0584 176.981 61.9564C177.014 61.8545 177.844 62.0584 178.824 62.4151Z" fill="#263238"/>
<path d="M182.345 55.6629C183.194 56.2708 183.839 56.8241 183.796 56.9005C183.752 56.9769 183.005 56.5547 182.146 55.9614C181.286 55.3681 180.641 54.8148 180.695 54.7238C180.749 54.6328 181.493 55.055 182.345 55.6629Z" fill="#263238"/>
<path d="M187.535 50.101C188.191 50.9127 188.666 51.6189 188.597 51.6807C188.529 51.7426 187.923 51.1347 187.256 50.3303C186.588 49.5259 186.11 48.8233 186.193 48.7542C186.276 48.685 186.878 49.2893 187.535 50.101Z" fill="#263238"/>
<path d="M194.027 46.1334C194.44 47.0943 194.712 47.9024 194.625 47.9534C194.538 48.0043 194.125 47.2472 193.697 46.2935C193.269 45.3398 192.997 44.5318 193.095 44.4735C193.193 44.4153 193.602 45.176 194.027 46.1334Z" fill="#263238"/>
<path d="M201.331 44.0695C201.472 45.1069 201.516 45.9586 201.421 45.9732C201.327 45.9877 201.128 45.1578 200.972 44.1241C200.816 43.0903 200.772 42.2349 200.877 42.2203C200.983 42.2058 201.189 43.0321 201.331 44.0695Z" fill="#263238"/>
<path d="M208.925 44.044C208.787 45.0814 208.602 45.915 208.512 45.9041C208.421 45.8931 208.443 45.0377 208.566 44.0003C208.689 42.9629 208.874 42.1257 208.979 42.1403C209.085 42.1549 209.063 43.003 208.925 44.044Z" fill="#263238"/>
<path d="M216.247 46.0569C215.837 47.0215 215.435 47.7714 215.348 47.735C215.261 47.6986 215.518 46.8869 215.914 45.915C216.309 44.9431 216.715 44.1969 216.813 44.2406C216.911 44.2843 216.661 45.096 216.247 46.0569Z" fill="#263238"/>
<path d="M222.761 49.9772C222.108 50.7962 221.52 51.4114 221.448 51.3531C221.375 51.2949 221.836 50.5778 222.478 49.7515C223.12 48.9252 223.704 48.2955 223.791 48.3792C223.878 48.463 223.403 49.1618 222.761 49.9772Z" fill="#263238"/>
<path d="M227.994 55.5027C227.145 56.1142 226.416 56.551 226.362 56.4746C226.308 56.3981 226.942 55.8339 227.78 55.2079C228.618 54.5818 229.347 54.1486 229.412 54.236C229.477 54.3234 228.843 54.8912 227.994 55.5027Z" fill="#263238"/>
<path d="M231.559 62.244C230.58 62.608 229.746 62.8228 229.724 62.7391C229.702 62.6553 230.449 62.2768 231.432 61.9019C232.415 61.5269 233.224 61.3049 233.264 61.4068C233.303 61.5087 232.538 61.88 231.559 62.244Z" fill="#263238"/>
<path d="M233.195 69.6769C232.154 69.7606 231.305 69.7533 231.298 69.6769C231.291 69.6005 232.125 69.433 233.162 69.3129C234.199 69.1928 235.052 69.2219 235.059 69.3311C235.066 69.4403 234.225 69.5932 233.195 69.6769Z" fill="#263238"/>
<path d="M192.471 36.2908L192.358 36.3418L192.025 36.4764C191.735 36.6002 191.299 36.7494 190.745 36.9933C189.181 37.6493 187.663 38.4094 186.2 39.2683C185.272 39.807 184.289 40.4513 183.255 41.1757C182.222 41.9 181.166 42.7445 180.111 43.6946C175.478 47.7937 171.938 52.9901 169.815 58.8115C169.318 60.1437 168.945 61.4468 168.622 62.6662C168.299 63.8856 168.081 65.0504 167.918 66.1133C167.653 67.7927 167.5 69.4878 167.458 71.1875C167.429 71.7917 167.458 72.2576 167.458 72.5743C167.458 72.7272 167.458 72.8437 167.458 72.9383C167.461 72.9795 167.461 73.0209 167.458 73.0621C167.453 73.0222 167.453 72.9819 167.458 72.942C167.458 72.851 167.458 72.7308 167.458 72.578C167.458 72.2613 167.418 71.7954 167.436 71.1911C167.449 69.485 167.583 67.782 167.839 66.0951C167.991 65.025 168.227 63.8638 168.52 62.6298C168.848 61.3182 169.243 60.0243 169.703 58.7532C171.816 52.8929 175.376 47.6665 180.049 43.5635C181.112 42.6135 182.193 41.7945 183.216 41.0483C184.238 40.3021 185.246 39.6833 186.186 39.1518C187.658 38.3017 189.189 37.5573 190.766 36.9242C191.321 36.6912 191.767 36.5602 192.065 36.44L192.406 36.3236C192.426 36.3111 192.448 36.3001 192.471 36.2908Z" fill="white"/>
<path d="M203.387 34.165C203.014 34.2428 202.636 34.2926 202.256 34.3143C201.552 34.3871 200.587 34.4926 199.521 34.6309C198.455 34.7693 197.494 34.9149 196.797 35.0241C196.424 35.101 196.046 35.1497 195.666 35.1697C196.027 35.0435 196.398 34.9509 196.776 34.893C197.468 34.7511 198.429 34.5836 199.496 34.4453C200.562 34.307 201.537 34.2196 202.245 34.1796C202.624 34.1389 203.007 34.134 203.387 34.165Z" fill="white"/>
<g opacity="0.4">
<path opacity="0.4" d="M178.976 91.768C178.976 91.768 195.996 118.726 222.398 104.919C249.961 90.505 234.729 57.4647 234.729 57.4647C234.729 57.4647 247.698 83.7964 220.831 100.963C214.14 105.24 206.854 105.243 201.298 104.683C187.1 103.256 178.976 91.768 178.976 91.768Z" fill="black"/>
</g>
<path d="M214.379 54.4326C214.543 59.2672 214.398 64.1074 213.944 68.9234C213.777 70.667 213.582 72.4287 212.911 74.0485C212.24 75.6683 211.097 77.1534 209.487 77.8378C207.877 78.5221 205.817 78.2382 204.696 76.8986L214.379 54.4326Z" fill="#E0E0E0"/>
<path d="M204.511 69.3529L216.447 49.1801L209.244 71.9555L205.563 73.0585L204.511 69.3529Z" fill="#3F72AF"/>
<g opacity="0.4">
<path opacity="0.4" d="M216.447 49.1801L207.594 69.7934L209.244 71.9555L216.447 49.1801Z" fill="black"/>
</g>
<path d="M205.563 76.9132C207.684 76.9132 209.404 75.1874 209.404 73.0585C209.404 70.9295 207.684 69.2037 205.563 69.2037C203.442 69.2037 201.722 70.9295 201.722 73.0585C201.722 75.1874 203.442 76.9132 205.563 76.9132Z" fill="#FAFAFA"/>
<path d="M209.404 73.0584C209.369 72.7451 209.317 72.434 209.248 72.1266C209.025 71.2964 208.533 70.5647 207.848 70.0482C207.345 69.6683 206.755 69.421 206.132 69.3288C205.51 69.2366 204.874 69.3025 204.283 69.5204C203.943 69.6412 203.623 69.8143 203.336 70.0336C203.031 70.2562 202.762 70.5265 202.542 70.8344C202.071 71.4794 201.816 72.2585 201.816 73.0584C201.816 73.8584 202.071 74.6375 202.542 75.2825C202.982 75.8822 203.587 76.3401 204.283 76.6002C204.779 76.7828 205.308 76.8594 205.836 76.8249C206.363 76.7904 206.878 76.6457 207.346 76.3999C207.815 76.1542 208.227 75.8129 208.556 75.398C208.885 74.983 209.125 74.5035 209.259 73.9903C209.329 73.683 209.381 73.3718 209.415 73.0584C209.437 73.3776 209.409 73.6982 209.331 74.0085C209.133 74.8764 208.641 75.6483 207.939 76.1925C207.457 76.5676 206.894 76.8233 206.296 76.9387C205.607 77.0708 204.896 77.0155 204.236 76.7785C203.877 76.6543 203.541 76.4737 203.238 76.2434C202.918 76.0108 202.636 75.7281 202.404 75.4062C201.905 74.7316 201.635 73.9134 201.635 73.073C201.635 72.2326 201.905 71.4144 202.404 70.7398C202.637 70.4187 202.919 70.1362 203.238 69.9026C203.542 69.6756 203.878 69.4964 204.236 69.3711C204.895 69.1324 205.607 69.0771 206.296 69.211C207.027 69.3521 207.702 69.7018 208.241 70.2183C208.779 70.7347 209.158 71.396 209.331 72.123C209.404 72.4291 209.428 72.7447 209.404 73.0584Z" fill="#263238"/>
<path d="M208.377 73.6363C208.69 72.0836 207.689 70.5704 206.142 70.2565C204.595 69.9426 203.087 70.9468 202.774 72.4995C202.462 74.0522 203.462 75.5654 205.009 75.8794C206.556 76.1933 208.064 75.1891 208.377 73.6363Z" fill="#455A64"/>
<path d="M175.284 165.58H194.179L185.37 89.3802L175.284 165.58Z" fill="#E0E0E0"/>
<path d="M82.3108 89.3802L70.0092 166.479L174.983 167.851L185.37 89.3802H82.3108Z" fill="#FAFAFA"/>
<path d="M180.695 124.699H76.675L78.938 110.503H182.574L180.695 124.699Z" fill="#EBEBEB"/>
<path d="M180.702 124.71H76.6641L78.9308 110.514H182.585L180.702 124.71ZM76.6859 124.692H180.688L182.563 110.496H78.9489L76.6859 124.692Z" fill="#263238"/>
<path d="M82.3109 89.3802L78.938 110.503H182.574L185.37 89.3802H82.3109Z" fill="#3F72AF"/>
<path d="M82.3254 89.3802L185.384 89.2928H185.482V89.3911C182.447 112.363 179.001 138.415 175.36 165.929V166.013H174.098L70.0962 165.984H69.9947V165.893L82.3254 89.3802C82.2238 90.0136 77.5382 119.574 70.1869 165.929L70.1107 165.838H174.073H175.251L175.161 165.918C178.806 138.404 182.258 112.356 185.315 89.3838L185.399 89.4785L82.3254 89.3802Z" fill="#263238"/>
<path d="M182.574 110.503C182.574 110.554 159.363 110.598 130.759 110.598C102.156 110.598 78.938 110.554 78.938 110.503C78.938 110.452 102.149 110.408 130.759 110.408C159.37 110.408 182.574 110.449 182.574 110.503Z" fill="#263238"/>
<path d="M180.695 124.699C180.695 124.754 157.361 124.794 128.587 124.794C99.8131 124.794 76.4755 124.754 76.4755 124.699C76.4755 124.645 99.8022 124.604 128.587 124.604C157.372 124.604 180.695 124.648 180.695 124.699Z" fill="#263238"/>
<path d="M178.577 137.763C178.577 137.818 155.247 137.858 126.473 137.858C97.6988 137.858 74.3467 137.818 74.3467 137.763C74.3467 137.708 97.6734 137.668 126.458 137.668C155.243 137.668 178.577 137.712 178.577 137.763Z" fill="#263238"/>
<path d="M176.463 150.827C176.463 150.878 153.129 150.922 124.355 150.922C95.5808 150.922 72.2432 150.878 72.2432 150.827C72.2432 150.776 95.57 150.732 124.355 150.732C153.14 150.732 176.463 150.776 176.463 150.827Z" fill="#263238"/>
<path d="M84.7443 166.035C84.6936 166.035 86.5976 153.586 89.002 138.254C91.4065 122.923 93.3903 110.492 93.4411 110.503C93.4919 110.514 91.5879 122.945 89.187 138.284C86.7862 153.623 84.7987 166.042 84.7443 166.035Z" fill="#263238"/>
<path d="M100.785 166.035C100.731 166.035 102.638 153.586 105.039 138.254C107.44 122.923 109.427 110.492 109.482 110.503C109.536 110.514 107.629 122.945 105.224 138.284C102.82 153.623 100.821 166.042 100.785 166.035Z" fill="#263238"/>
<path d="M115.691 165.478C115.64 165.478 117.526 153.157 119.901 137.978C122.277 122.799 124.253 110.492 124.3 110.503C124.348 110.514 122.465 122.821 120.09 138.007C117.714 153.193 115.738 165.485 115.691 165.478Z" fill="#263238"/>
<path d="M130.433 165.918C130.382 165.918 132.283 153.495 134.68 138.196C137.077 122.897 139.061 110.492 139.112 110.503C139.163 110.514 137.262 122.919 134.865 138.225C132.468 153.532 130.484 165.926 130.433 165.918Z" fill="#263238"/>
<path d="M145.248 165.918C145.197 165.918 147.098 153.495 149.495 138.196C151.892 122.897 153.876 110.492 153.927 110.503C153.977 110.514 152.081 122.919 149.683 138.225C147.286 153.532 145.302 165.926 145.248 165.918Z" fill="#263238"/>
<path d="M160.052 165.984C160.001 165.984 161.905 153.546 164.306 138.222C166.707 122.897 168.691 110.478 168.745 110.489C168.8 110.499 166.892 122.923 164.491 138.251C162.09 153.579 160.103 166.006 160.052 165.984Z" fill="#263238"/>
<g opacity="0.2">
<path opacity="0.2" d="M150.732 111.493C152.516 110.7 153.633 108.836 154.093 106.932C154.554 105.029 154.482 103.041 154.55 101.079C154.619 99.1172 154.851 97.097 155.849 95.4117C156.44 94.418 157.27 93.5917 157.927 92.6344C158.583 91.677 159.069 90.5122 158.826 89.3584L147.663 89.4166L150.732 111.493Z" fill="black"/>
</g>
<path d="M104.448 125.751C104.418 125.8 104.382 125.844 104.339 125.882L104.006 126.246C103.712 126.548 103.28 126.974 102.736 127.506C101.648 128.554 100.136 129.981 98.4132 131.51C96.6906 133.038 95.0948 134.371 93.9234 135.317C93.3359 135.79 92.8572 136.169 92.5235 136.409L92.1355 136.7C92.0923 136.738 92.0433 136.769 91.9904 136.791C91.9904 136.791 92.0303 136.744 92.1101 136.671L92.4728 136.351L93.8328 135.197C94.986 134.225 96.5673 132.875 98.2863 131.353C100.005 129.832 101.55 128.419 102.638 127.396L103.948 126.184L104.31 125.86C104.351 125.818 104.398 125.782 104.448 125.751Z" fill="#263238"/>
<path d="M103.61 136.937C103.456 136.802 103.312 136.656 103.179 136.5L102.044 135.284C101.064 134.24 99.7515 132.835 98.3044 131.28L94.5255 127.313L93.3794 126.108C93.2348 125.965 93.1003 125.811 92.9769 125.649C93.1411 125.771 93.2941 125.907 93.4338 126.057C93.7167 126.326 94.1229 126.723 94.6197 127.218C95.6135 128.208 96.9698 129.595 98.4386 131.153C99.9074 132.711 101.213 134.145 102.141 135.197C102.606 135.721 102.979 136.151 103.229 136.449C103.371 136.6 103.499 136.763 103.61 136.937Z" fill="#263238"/>
<path d="M107.484 129.096C107.484 129.096 107.52 129.002 107.596 128.816C107.716 128.547 107.862 128.289 108.031 128.048C108.698 127.113 109.639 126.409 110.722 126.035C111.498 125.753 112.326 125.644 113.148 125.715C114.128 125.81 115.071 126.133 115.905 126.657C116.867 127.253 117.68 128.062 118.28 129.023C118.975 130.097 119.32 131.359 119.27 132.638C119.229 133.328 119.015 133.996 118.65 134.582C118.267 135.189 117.757 135.706 117.156 136.096C115.875 136.92 114.367 137.317 112.847 137.228C112.052 137.185 111.268 137.014 110.526 136.722C109.755 136.42 109.061 135.947 108.495 135.339C108.215 135.019 107.978 134.663 107.792 134.28C107.615 133.888 107.492 133.474 107.429 133.049C107.309 132.178 107.384 131.292 107.65 130.454C108.205 128.707 109.407 127.241 111.009 126.359C111.839 125.901 112.763 125.641 113.709 125.597C114.655 125.554 115.598 125.728 116.467 126.108C117.367 126.488 118.154 127.094 118.755 127.866C119.357 128.659 119.733 129.601 119.843 130.592C119.969 131.597 119.807 132.618 119.375 133.533C119.154 133.993 118.863 134.415 118.512 134.786C118.156 135.15 117.753 135.467 117.315 135.728C116.432 136.216 115.458 136.517 114.454 136.611C113.451 136.705 112.438 136.59 111.48 136.274C110.537 135.984 109.67 135.486 108.942 134.818C108.219 134.15 107.726 133.27 107.531 132.303C107.326 131.353 107.461 130.361 107.912 129.5C108.14 129.076 108.454 128.704 108.833 128.408C109.206 128.126 109.622 127.906 110.066 127.757C110.937 127.476 111.85 127.353 112.764 127.393C113.654 127.399 114.539 127.522 115.397 127.757C116.245 127.981 117.029 128.402 117.685 128.987C118.314 129.576 118.743 130.347 118.911 131.193C119.078 132.01 119.029 132.857 118.77 133.65C118.513 134.414 118.079 135.107 117.504 135.67C116.412 136.742 114.965 137.374 113.439 137.446C112.724 137.484 112.009 137.38 111.335 137.141C110.688 136.908 110.106 136.522 109.638 136.016C109.195 135.533 108.86 134.961 108.655 134.338C108.453 133.753 108.363 133.136 108.39 132.518C108.442 131.373 108.897 130.285 109.674 129.446C110.338 128.716 111.179 128.171 112.115 127.862C112.9 127.605 113.732 127.526 114.552 127.629C115.685 127.771 116.761 128.206 117.675 128.892C117.912 129.067 118.136 129.26 118.345 129.468C118.487 129.609 118.556 129.686 118.556 129.686C118.556 129.686 118.476 129.617 118.335 129.482C118.119 129.281 117.891 129.094 117.653 128.922C116.737 128.255 115.667 127.836 114.545 127.702C113.659 127.599 112.762 127.711 111.929 128.027C111.095 128.344 110.349 128.857 109.754 129.522C108.997 130.343 108.556 131.408 108.51 132.525C108.485 133.131 108.575 133.736 108.775 134.309C108.977 134.913 109.304 135.468 109.736 135.936C110.19 136.426 110.755 136.8 111.382 137.028C112.04 137.257 112.736 137.356 113.431 137.319C114.921 137.245 116.332 136.625 117.395 135.575C117.951 135.03 118.37 134.36 118.617 133.621C118.866 132.854 118.911 132.037 118.748 131.247C118.585 130.435 118.173 129.695 117.569 129.129C116.931 128.566 116.171 128.16 115.35 127.942C114.506 127.71 113.635 127.588 112.76 127.578C111.868 127.545 110.977 127.668 110.127 127.942C109.261 128.209 108.527 128.795 108.075 129.584C107.645 130.407 107.517 131.355 107.712 132.263C107.9 133.191 108.376 134.036 109.072 134.676C109.778 135.331 110.62 135.818 111.538 136.103C112.47 136.411 113.456 136.523 114.433 136.431C115.41 136.34 116.358 136.047 117.218 135.572C117.642 135.322 118.031 135.016 118.374 134.662C118.711 134.307 118.991 133.901 119.205 133.461C119.622 132.577 119.78 131.592 119.658 130.621C119.555 129.665 119.195 128.754 118.617 127.986C118.036 127.239 117.275 126.654 116.405 126.286C115.563 125.917 114.647 125.746 113.728 125.788C112.809 125.829 111.913 126.082 111.107 126.526C109.55 127.387 108.382 128.813 107.843 130.512C107.584 131.325 107.509 132.185 107.621 133.031C107.687 133.442 107.809 133.841 107.984 134.218C108.164 134.586 108.39 134.928 108.659 135.237C109.206 135.826 109.877 136.283 110.624 136.576C111.35 136.864 112.116 137.034 112.895 137.079C114.381 137.17 115.859 136.788 117.116 135.987C117.697 135.63 118.187 135.141 118.545 134.559C118.903 133.977 119.121 133.319 119.18 132.638C119.23 131.387 118.895 130.152 118.219 129.1C117.632 128.151 116.835 127.35 115.89 126.759C115.072 126.239 114.145 125.917 113.181 125.817C112.371 125.739 111.554 125.841 110.787 126.115C109.714 126.479 108.777 127.165 108.104 128.081C107.93 128.318 107.78 128.572 107.654 128.838C107.531 129.005 107.484 129.096 107.484 129.096Z" fill="#3F72AF"/>
<path d="M117.308 139.146C117.341 139.186 114.465 141.654 110.882 144.661C107.299 147.668 104.354 150.066 104.332 150.026C104.31 149.986 107.175 147.518 110.758 144.515C114.342 141.512 117.276 139.106 117.308 139.146Z" fill="#263238"/>
<path d="M117.936 149.702C117.765 149.602 117.603 149.486 117.453 149.356L116.177 148.359C115.107 147.507 113.638 146.321 112.02 145.003C110.403 143.685 108.949 142.484 107.901 141.607L106.664 140.559C106.507 140.438 106.362 140.304 106.229 140.158C106.399 140.26 106.56 140.376 106.711 140.504L107.984 141.501C109.054 142.353 110.523 143.54 112.14 144.857C113.758 146.175 115.212 147.376 116.264 148.254L117.497 149.298C117.653 149.422 117.799 149.557 117.936 149.702Z" fill="#263238"/>
<path d="M147.584 139.288C147.613 139.328 144.864 141.443 141.436 144.02C138.009 146.597 135.209 148.632 135.177 148.588C135.144 148.545 137.897 146.434 141.324 143.856C144.751 141.279 147.551 139.245 147.584 139.288Z" fill="#263238"/>
<path d="M148.65 148.243C148.624 148.286 145.701 146.47 142.122 144.18C138.542 141.891 135.674 140.005 135.699 139.958C135.724 139.911 138.647 141.734 142.227 144.02C145.807 146.306 148.693 148.199 148.65 148.243Z" fill="#263238"/>
<path d="M117.78 165.922C117.74 165.886 120.598 162.879 124.159 159.214C127.72 155.548 130.64 152.596 130.687 152.632C130.734 152.669 127.869 155.676 124.308 159.345C120.746 163.014 117.816 165.959 117.78 165.922Z" fill="#3F72AF"/>
<path d="M129.86 165.918C129.86 165.918 129.813 165.878 129.74 165.791L129.436 165.427C129.153 165.063 128.776 164.594 128.315 164.018C127.369 162.832 126.027 161.219 124.471 159.505C122.915 157.79 121.439 156.302 120.351 155.246L119.06 153.972L118.697 153.63C118.655 153.592 118.618 153.549 118.585 153.502C118.585 153.502 118.639 153.532 118.723 153.601L119.085 153.917C119.408 154.194 119.865 154.605 120.423 155.122C121.533 156.156 123.027 157.634 124.591 159.352C126.154 161.07 127.492 162.701 128.399 163.909C128.863 164.513 129.229 165.001 129.487 165.365L129.766 165.766C129.803 165.812 129.835 165.864 129.86 165.918Z" fill="#3F72AF"/>
<path d="M100.172 150.609C100.172 150.609 100.288 159.552 98.0396 164.907L84.3345 162.562C84.3345 162.562 88.4616 154.088 87.3374 149.378L100.172 150.609Z" fill="#EBEBEB"/>
<path d="M100.169 150.274C100.169 150.274 98.4495 161.252 97.3978 164.528L83.776 161.813C83.776 161.813 86.5794 151.198 86.5431 148.243L100.169 150.274Z" fill="#3F72AF"/>
<path d="M87.925 153.164C87.925 153.215 89.9487 153.688 92.4692 154.22C94.9897 154.751 97.0388 155.14 97.0497 155.093C97.0605 155.046 95.026 154.569 92.5055 154.038C89.9849 153.506 87.9359 153.113 87.925 153.164Z" fill="white"/>
<path d="M87.5768 155.49C87.5768 155.541 89.6005 156.01 92.121 156.545C94.6415 157.081 96.6906 157.466 96.7015 157.419C96.7124 157.372 94.6778 156.895 92.1573 156.363C89.6367 155.832 87.5877 155.428 87.5768 155.49Z" fill="white"/>
<path d="M89.5787 158.122C89.811 158.223 90.0545 158.296 90.304 158.34C90.7718 158.453 91.421 158.602 92.1355 158.755C92.8499 158.908 93.5064 159.032 93.9815 159.119C94.2352 159.183 94.4959 159.215 94.7576 159.214C94.5164 159.112 94.2646 159.037 94.0068 158.992C93.5426 158.875 92.8934 158.726 92.1754 158.577C91.4573 158.427 90.8045 158.296 90.333 158.213C90.0861 158.152 89.8329 158.121 89.5787 158.122Z" fill="white"/>
<path d="M165.013 125.496C165.013 125.496 166.417 134.21 164.995 139.769L151.272 139.474C151.272 139.474 154.079 130.6 152.298 126.162L165.013 125.496Z" fill="#EBEBEB"/>
<path d="M164.952 125.169C164.952 125.169 164.861 136.129 164.306 139.474L150.608 138.822C150.608 138.822 151.809 128.048 151.334 125.169H164.952Z" fill="#455A64"/>
<path d="M153.277 130.046C153.277 130.097 155.337 130.141 157.88 130.145C160.422 130.148 162.486 130.112 162.486 130.061C162.486 130.01 160.426 129.966 157.88 129.963C155.334 129.959 153.277 129.995 153.277 130.046Z" fill="white"/>
<path d="M153.408 132.365C153.408 132.416 155.468 132.46 158.01 132.463C160.553 132.467 162.616 132.43 162.616 132.38C162.616 132.329 160.556 132.285 158.01 132.281C155.464 132.278 153.408 132.314 153.408 132.365Z" fill="white"/>
<path d="M155.863 134.502C156.116 134.556 156.374 134.579 156.632 134.571C157.107 134.571 157.764 134.596 158.489 134.6C159.214 134.604 159.867 134.6 160.342 134.574C160.6 134.585 160.858 134.564 161.111 134.513C160.858 134.458 160.6 134.436 160.342 134.447C159.867 134.429 159.214 134.418 158.489 134.414C157.764 134.411 157.107 134.414 156.632 134.44C156.374 134.429 156.116 134.45 155.863 134.502Z" fill="white"/>
<path d="M167.915 100.369C165.354 100.369 162.776 98.7569 161.419 96.2198C160.101 93.6933 159.692 90.7874 160.262 87.9934C161.013 84.3534 163.414 81.3686 166.381 80.4149C168.901 79.6032 173.405 80.0509 175.531 83.6217C176.543 85.3679 177.046 87.3646 176.981 89.3838C176.972 89.5273 176.934 89.6674 176.871 89.7962C176.807 89.925 176.719 90.04 176.611 90.1347C176.504 90.2293 176.378 90.3017 176.243 90.3478C176.107 90.3938 175.964 90.4126 175.821 90.403C175.532 90.3837 175.263 90.2502 175.073 90.0317C174.882 89.8133 174.786 89.5279 174.805 89.2382C174.825 87.6618 174.422 86.109 173.638 84.7428C171.998 81.9946 168.404 82.0492 167.019 82.4933C164.48 83.3087 162.856 86.0642 162.366 88.4338C161.896 90.7279 162.23 93.1146 163.312 95.1897C164.382 97.1917 166.547 98.4365 168.466 98.1417C168.749 98.1021 169.036 98.176 169.266 98.3474C169.495 98.5188 169.648 98.774 169.691 99.0576C169.735 99.3413 169.665 99.6307 169.498 99.8632C169.33 100.096 169.078 100.253 168.796 100.3C168.504 100.346 168.21 100.369 167.915 100.369Z" fill="#263238"/>
<path d="M97.6734 100.369C95.1094 100.369 92.5344 98.7568 91.1781 96.2197C89.8583 93.6938 89.4483 90.7878 90.0175 87.9933C90.6522 84.9212 92.7992 81.3831 96.1829 80.4076C97.8143 79.9641 99.5439 80.052 101.122 80.6587L100.339 82.6971C99.203 82.2639 97.9608 82.1964 96.7849 82.5042C94.2897 83.2322 92.665 86.0059 92.1645 88.4338C91.6944 90.7279 92.0288 93.1146 93.1111 95.1896C94.1809 97.1953 96.3497 98.4365 98.2646 98.1417L98.5946 100.3C98.2898 100.347 97.9818 100.371 97.6734 100.369Z" fill="#263238"/>
<path d="M167.019 89.4384L166.018 94.9385H180.746L182.055 89.493L167.019 89.4384Z" fill="#3F72AF"/>
<path d="M101.405 99.4994C101.406 99.9648 101.269 100.42 101.012 100.807C100.755 101.194 100.389 101.496 99.9607 101.675C99.5324 101.853 99.0611 101.9 98.6063 101.809C98.1515 101.719 97.7337 101.495 97.4058 101.166C97.0779 100.837 96.8547 100.417 96.7644 99.9609C96.6742 99.5044 96.7209 99.0313 96.8986 98.6015C97.0764 98.1717 97.3773 97.8045 97.7631 97.5464C98.1489 97.2883 98.6024 97.1509 99.0661 97.1516C99.6862 97.1526 100.281 97.4002 100.719 97.8403C101.158 98.2804 101.404 98.877 101.405 99.4994Z" fill="#263238"/>
<path d="M171.585 99.4994C171.586 99.9648 171.449 100.42 171.192 100.807C170.934 101.194 170.569 101.496 170.14 101.675C169.712 101.853 169.241 101.9 168.786 101.809C168.331 101.719 167.913 101.495 167.585 101.166C167.258 100.837 167.034 100.417 166.944 99.9609C166.854 99.5044 166.9 99.0313 167.078 98.6015C167.256 98.1717 167.557 97.8045 167.943 97.5464C168.329 97.2883 168.782 97.1509 169.246 97.1516C169.866 97.1526 170.46 97.4002 170.899 97.8403C171.337 98.2804 171.584 98.877 171.585 99.4994Z" fill="#263238"/>
<path d="M132.935 53.9885L129.084 68.6504L115.789 70.0845V72.4505L134.47 73.1094L137.98 56.6602L132.935 53.9885Z" fill="#FFBE9D"/>
<path d="M138.539 73.4989C138.539 73.4989 117.765 72.5052 111.85 77.1389C105.935 81.7726 108.8 89.3802 108.8 89.3802L142.231 89.2928L145.183 72.2831L138.539 73.4989Z" fill="#263238"/>
<path d="M142.075 84.721C141.974 84.7235 141.873 84.7162 141.774 84.6991C141.578 84.6773 141.291 84.6482 140.921 84.6009C140.196 84.5099 139.108 84.357 137.802 84.1349C134.375 83.5498 130.984 82.7634 127.648 81.7799C125.697 81.2011 123.851 80.6187 122.146 80.1928C120.641 79.802 119.103 79.5582 117.551 79.4648C116.504 79.406 115.454 79.467 114.421 79.6468C114.059 79.6905 113.779 79.7851 113.584 79.8179C113.487 79.8419 113.389 79.8601 113.29 79.8725C113.382 79.8326 113.478 79.8022 113.576 79.7815C113.849 79.6963 114.126 79.627 114.407 79.574C115.442 79.3641 116.499 79.2822 117.555 79.3301C119.129 79.4054 120.691 79.6383 122.219 80.0254C123.934 80.4403 125.784 81.0227 127.728 81.6015C131.046 82.5766 134.412 83.3773 137.813 84.0003C139.123 84.2405 140.185 84.4116 140.921 84.5281L141.77 84.6627C141.873 84.6736 141.975 84.6931 142.075 84.721Z" fill="#455A64"/>
<path d="M122.766 80.08C122.189 79.6023 121.574 79.1726 120.928 78.7951C120.25 78.4768 119.548 78.2139 118.828 78.0088C119.051 77.9893 119.276 78.0115 119.491 78.0743C120.022 78.1889 120.534 78.375 121.015 78.6276C121.494 78.8816 121.938 79.1986 122.335 79.5704C122.509 79.712 122.655 79.8848 122.766 80.08Z" fill="#455A64"/>
<path d="M140.74 118.82L141.019 127.582L139.264 134.578C139.235 134.698 139.232 134.822 139.253 134.944C139.275 135.065 139.321 135.18 139.389 135.283C139.457 135.385 139.546 135.473 139.649 135.539C139.752 135.606 139.868 135.65 139.989 135.67C140.129 135.696 140.274 135.687 140.41 135.646C140.546 135.604 140.671 135.53 140.773 135.43C142.093 134.134 146.938 129.344 146.876 128.707C146.811 127.979 147.192 119.439 147.192 119.439L140.74 118.82Z" fill="#3F72AF"/>
<g opacity="0.6">
<path opacity="0.6" d="M139.957 135.685L146.847 128.128V128.492C146.852 128.814 146.741 129.126 146.535 129.373C145.988 130.032 144.432 131.819 140.773 135.437C140.668 135.541 140.539 135.617 140.398 135.659C140.257 135.701 140.108 135.707 139.964 135.677L139.957 135.685Z" fill="white"/>
</g>
<g opacity="0.6">
<path opacity="0.6" d="M145.019 125.314C144.909 125.395 144.833 125.516 144.807 125.65C144.78 125.785 144.806 125.925 144.878 126.042C144.954 126.151 145.069 126.227 145.199 126.254C145.329 126.281 145.465 126.257 145.578 126.188C145.692 126.103 145.77 125.979 145.796 125.839C145.823 125.7 145.797 125.555 145.723 125.434C145.633 125.328 145.505 125.26 145.366 125.247C145.227 125.233 145.089 125.274 144.98 125.362" fill="white"/>
</g>
<path d="M141.919 131.834C141.868 131.859 141.665 131.404 141.146 131.16C140.825 131.034 140.483 130.972 140.138 130.978C140.138 130.956 140.24 130.887 140.443 130.854C140.712 130.822 140.985 130.867 141.229 130.985C141.473 131.103 141.679 131.289 141.821 131.52C141.922 131.699 141.937 131.826 141.919 131.834Z" fill="#263238"/>
<path d="M141.306 133.016C141.055 132.879 140.796 132.757 140.53 132.652C140.247 132.602 139.961 132.568 139.674 132.551C139.807 132.465 139.959 132.412 140.117 132.397C140.275 132.383 140.434 132.407 140.58 132.467C141.095 132.605 141.349 132.991 141.306 133.016Z" fill="#263238"/>
<path d="M143.061 130.312C142.691 130.067 142.303 129.849 141.901 129.66C141.476 129.53 141.042 129.433 140.602 129.369C141.059 129.273 141.534 129.311 141.97 129.478C142.406 129.645 142.784 129.935 143.061 130.312Z" fill="#263238"/>
<path d="M143.199 127.647C143.177 127.702 142.691 127.502 142.064 127.487C141.436 127.473 140.939 127.626 140.918 127.571C141.27 127.376 141.667 127.281 142.069 127.294C142.47 127.308 142.861 127.43 143.199 127.647Z" fill="#263238"/>
<path d="M143.181 125.074C142.799 124.954 142.402 124.886 142.002 124.874C141.606 124.92 141.217 125.022 140.849 125.176C140.849 125.158 140.929 125.045 141.128 124.928C141.395 124.777 141.694 124.691 142 124.678C142.307 124.665 142.612 124.724 142.891 124.852C143.09 124.95 143.195 125.052 143.181 125.074Z" fill="#263238"/>
<path d="M142.013 124.382C141.99 124.273 141.99 124.16 142.013 124.051C142.04 123.747 142.128 123.451 142.27 123.181C142.355 122.973 142.507 122.8 142.702 122.69C142.769 122.66 142.844 122.651 142.917 122.664C142.99 122.678 143.056 122.714 143.108 122.766C143.202 122.876 143.252 123.015 143.25 123.159C143.233 123.453 143.115 123.731 142.917 123.947C142.718 124.164 142.452 124.305 142.162 124.346C141.872 124.378 141.58 124.324 141.322 124.189C141.063 124.054 140.851 123.845 140.711 123.589C140.676 123.524 140.655 123.453 140.65 123.379C140.645 123.306 140.656 123.232 140.682 123.163C140.716 123.098 140.769 123.045 140.834 123.01C140.898 122.976 140.972 122.962 141.045 122.97C141.26 123.016 141.46 123.118 141.625 123.265C141.863 123.454 142.067 123.683 142.227 123.942C142.291 124.033 142.338 124.136 142.365 124.244C142.134 123.915 141.857 123.622 141.542 123.374C141.394 123.253 141.22 123.169 141.034 123.13C140.994 123.123 140.952 123.13 140.916 123.148C140.879 123.166 140.849 123.196 140.831 123.232C140.818 123.279 140.814 123.328 140.821 123.376C140.827 123.424 140.843 123.471 140.867 123.512C140.994 123.729 141.181 123.905 141.404 124.019C141.628 124.132 141.88 124.179 142.129 124.153C142.376 124.121 142.605 124.005 142.778 123.825C142.95 123.644 143.055 123.409 143.076 123.159C143.08 123.06 143.049 122.962 142.989 122.883C142.961 122.852 142.924 122.83 142.884 122.822C142.843 122.813 142.801 122.818 142.764 122.835C142.605 122.933 142.478 123.076 142.401 123.247C142.208 123.6 142.077 123.984 142.013 124.382Z" fill="#263238"/>
<path d="M145.165 72.2831C145.165 72.2831 136.181 89.3292 136.058 92.3031C135.935 95.277 136.058 122.69 136.058 122.69H149.963C150.325 122.69 152.411 110.339 151.986 107.496C151.562 104.654 150.064 89.3729 150.064 89.3729H158.065C158.065 89.3729 160.259 87.0178 160.179 84.0294C160.132 82.3805 159.058 79.0098 158.003 77.2226C157.318 76.076 152.926 70.0736 152.926 70.0736L145.165 72.2831Z" fill="#263238"/>
<path d="M144.562 73.437C144.553 73.4711 144.539 73.504 144.523 73.5353C144.49 73.6081 144.446 73.6991 144.392 73.8119L143.87 74.8748C143.634 75.3371 143.355 75.8976 143.028 76.5492L142.506 77.5939L141.959 78.7841L139.264 84.6409C138.753 85.7329 138.216 86.9013 137.657 88.0989L136.812 89.9189C136.539 90.5483 136.333 91.2046 136.196 91.8772C136.058 92.5517 135.986 93.2381 135.982 93.9265C135.96 94.6072 135.945 95.2806 135.935 95.9395C135.935 97.2644 135.909 98.5384 135.913 99.7542C135.913 102.186 135.942 104.377 135.967 106.215C135.993 108.053 136.014 109.528 136.033 110.583C136.033 111.085 136.033 111.482 136.033 111.766C136.033 111.894 136.033 111.995 136.033 112.076C136.033 112.156 136.033 112.181 136.033 112.181C136.027 112.146 136.027 112.11 136.033 112.076C136.033 111.995 136.033 111.894 136.033 111.77C136.033 111.482 136.004 111.089 135.982 110.583C135.945 109.557 135.898 108.068 135.858 106.215C135.819 104.362 135.775 102.189 135.764 99.7542C135.764 98.5384 135.764 97.2608 135.764 95.9395C135.764 95.277 135.786 94.6036 135.811 93.9192C135.815 93.2199 135.887 92.5225 136.025 91.8372C136.166 91.152 136.377 90.4835 136.656 89.8425L137.505 88.0225L139.122 84.5717L141.871 78.7295L142.43 77.5429C142.622 77.1789 142.793 76.8149 142.967 76.5055L143.834 74.8457C144.069 74.3979 144.258 74.0485 144.388 73.7973C144.45 73.6881 144.501 73.6008 144.537 73.528C144.573 73.4552 144.559 73.4333 144.562 73.437Z" fill="#455A64"/>
<path d="M141.654 79.2428C141.366 78.5499 141.123 77.8385 140.929 77.1134C140.674 76.4074 140.467 75.6851 140.308 74.9512C140.647 75.6241 140.914 76.3304 141.106 77.0588C141.363 77.766 141.547 78.4979 141.654 79.2428Z" fill="#455A64"/>
<path d="M152.015 106.961C151.992 106.899 151.977 106.834 151.972 106.768C151.955 106.62 151.929 106.435 151.896 106.212C151.83 105.698 151.747 104.999 151.642 104.151C151.442 102.39 151.174 99.9981 150.876 97.3554C150.579 94.7128 150.336 92.2922 150.187 90.5486C150.119 89.6969 150.06 88.998 150.017 88.4847C150.017 88.2554 149.988 88.0698 149.977 87.9205C149.972 87.8551 149.972 87.7894 149.977 87.724C150 87.7859 150.013 87.851 150.017 87.9169C150.035 88.0661 150.06 88.2518 150.089 88.4775C150.148 88.9907 150.227 89.6859 150.322 90.5377C150.514 92.2995 150.775 94.6946 151.047 97.3372C151.319 99.9799 151.576 102.371 151.772 104.137C151.852 104.989 151.921 105.687 151.968 106.201C151.986 106.426 152.001 106.616 152.012 106.765C152.018 106.83 152.02 106.896 152.015 106.961Z" fill="#455A64"/>
<path d="M148.483 26.6302C148.269 25.1742 149.513 23.7728 150.949 23.6017C152.385 23.4307 153.832 24.3297 154.492 25.6438C154.799 26.3046 154.968 27.0219 154.986 27.7509C155.005 28.4799 154.874 29.2049 154.601 29.8807C154.238 30.8017 153.568 31.7335 152.592 31.8063C151.616 31.8791 150.869 31.1329 150.224 30.4449" fill="#263238"/>
<path d="M138.274 33.852C135.373 27.471 142.263 24.2642 146.01 25.3271C149.535 26.3281 151.04 28.0898 151.62 30.4558C152.256 32.8296 152.129 35.3441 151.257 37.6412C150.8 38.755 149.981 39.8834 148.791 40.0218" fill="#263238"/>
<path d="M148.258 28.8688C148.556 28.8999 148.832 29.0426 149.031 29.2686C149.229 29.4946 149.335 29.7872 149.328 30.0882L148.65 46.3299C148.624 48.2482 145.835 49.3329 143.786 49.2892C141.723 49.2456 141.654 48.2264 141.61 46.4027C141.563 43.356 141.563 42.2094 141.563 42.2276C141.563 42.2458 138.952 41.7908 138.412 38.3729C138.14 36.673 138.227 33.8848 138.368 31.6061C138.499 29.5568 139.851 27.0379 141.89 27.2381L148.258 28.8688Z" fill="#FFBE9D"/>
<path d="M139.703 33.5498C139.701 33.6645 139.744 33.7753 139.823 33.8583C139.901 33.9414 140.009 33.9901 140.123 33.9939C140.179 33.9984 140.235 33.9916 140.288 33.9739C140.341 33.9562 140.39 33.928 140.432 33.891C140.474 33.854 140.508 33.809 140.532 33.7585C140.557 33.708 140.57 33.6531 140.573 33.5972C140.574 33.4828 140.531 33.3725 140.452 33.2897C140.374 33.2068 140.266 33.1578 140.152 33.1531C140.097 33.1486 140.041 33.1554 139.988 33.1731C139.935 33.1908 139.886 33.219 139.844 33.256C139.802 33.293 139.768 33.338 139.744 33.3885C139.719 33.439 139.705 33.4939 139.703 33.5498Z" fill="#263238"/>
<path d="M138.981 33.0585C139.035 33.1131 139.369 32.8692 139.837 32.8692C140.305 32.8692 140.653 33.1058 140.704 33.0476C140.755 32.9893 140.675 32.9202 140.522 32.811C140.319 32.6699 140.077 32.5949 139.83 32.5962C139.586 32.5938 139.347 32.6718 139.152 32.8182C139.006 32.9274 138.956 33.033 138.981 33.0585Z" fill="#263238"/>
<path d="M144.298 33.5499C144.297 33.6619 144.338 33.7701 144.413 33.8526C144.489 33.9351 144.593 33.9856 144.704 33.994C144.76 33.9984 144.816 33.9916 144.869 33.9739C144.922 33.9563 144.97 33.9281 145.012 33.8911C145.054 33.8541 145.088 33.809 145.113 33.7585C145.137 33.708 145.151 33.6532 145.154 33.5972C145.155 33.4828 145.111 33.3726 145.033 33.2897C144.954 33.2068 144.847 33.1578 144.733 33.1531C144.623 33.1482 144.515 33.1871 144.434 33.2614C144.352 33.3358 144.303 33.4395 144.298 33.5499Z" fill="#263238"/>
<path d="M143.616 33.1458C143.67 33.2004 144 32.9565 144.468 32.9565C144.936 32.9565 145.284 33.1931 145.335 33.1385C145.386 33.0839 145.306 33.0075 145.154 32.8983C144.95 32.7566 144.708 32.6815 144.461 32.6835C144.217 32.6835 143.98 32.7613 143.783 32.9056C143.616 33.0148 143.576 33.124 143.616 33.1458Z" fill="#263238"/>
<path d="M141.897 36.6439C141.649 36.5673 141.394 36.5209 141.135 36.5055C141.016 36.5055 140.9 36.4691 140.881 36.3891C140.87 36.2624 140.898 36.1353 140.961 36.0251C141.074 35.7339 141.19 35.4281 141.324 35.1078C141.653 34.3306 141.919 33.5285 142.122 32.709C141.729 33.4571 141.398 34.2363 141.132 35.0386L140.791 35.9632C140.716 36.1089 140.694 36.2763 140.729 36.4364C140.747 36.4787 140.774 36.5164 140.809 36.5466C140.843 36.5769 140.884 36.5989 140.929 36.6111C140.995 36.6287 141.063 36.6385 141.132 36.6402C141.386 36.6732 141.643 36.6744 141.897 36.6439Z" fill="#263238"/>
<path d="M141.574 42.224C143.184 42.2534 144.771 41.8311 146.155 41.0046C146.155 41.0046 145.045 43.356 141.636 43.0357L141.574 42.224Z" fill="#EB996E"/>
<path d="M142.096 37.7796C142.186 37.6674 142.303 37.5798 142.435 37.5251C142.568 37.4704 142.712 37.4502 142.854 37.4665C142.959 37.4753 143.06 37.5053 143.152 37.5547C143.245 37.6042 143.326 37.672 143.391 37.7541C143.453 37.8326 143.49 37.9284 143.497 38.0286C143.503 38.1289 143.479 38.2287 143.427 38.3146C143.352 38.3997 143.253 38.4602 143.143 38.4881C143.033 38.516 142.917 38.5101 142.811 38.4712C142.588 38.3923 142.383 38.2684 142.209 38.1072C142.156 38.0695 142.111 38.0227 142.075 37.9688C142.058 37.9428 142.049 37.9125 142.049 37.8815C142.049 37.8505 142.058 37.8201 142.075 37.7941" fill="#EB996E"/>
<path d="M143.282 36.9715C143.206 36.9715 143.203 37.4774 142.767 37.8414C142.332 38.2054 141.788 38.1472 141.785 38.2054C141.781 38.2637 141.904 38.3037 142.147 38.311C142.447 38.3144 142.738 38.2127 142.97 38.0234C143.191 37.841 143.334 37.5804 143.369 37.2954C143.373 37.0952 143.315 36.9678 143.282 36.9715Z" fill="#263238"/>
<path d="M143.391 32.3196C143.438 32.447 143.91 32.3851 144.461 32.4542C145.012 32.5234 145.458 32.669 145.531 32.5562C145.564 32.5016 145.484 32.3814 145.306 32.254C145.067 32.0998 144.795 32.005 144.512 31.9774C144.23 31.9421 143.944 31.9758 143.678 32.0757C143.475 32.1558 143.373 32.2577 143.391 32.3196Z" fill="#263238"/>
<path d="M139.155 31.6898C139.239 31.799 139.561 31.6898 139.953 31.6898C140.345 31.6898 140.678 31.7626 140.747 31.6498C140.78 31.5952 140.747 31.486 140.584 31.3877C140.393 31.2616 140.167 31.1992 139.939 31.2093C139.71 31.2141 139.489 31.289 139.304 31.4241C139.166 31.5297 139.119 31.6389 139.155 31.6898Z" fill="#263238"/>
<path d="M143.591 26.117C142.435 26.1762 141.312 26.5267 140.327 27.1362C139.774 27.4236 139.283 27.8174 138.883 28.2952C138.482 28.773 138.179 29.3254 137.991 29.9208C137.943 30.0446 137.921 30.1769 137.926 30.3096C137.931 30.4423 137.963 30.5726 138.02 30.6925C138.128 30.8296 138.28 30.9246 138.45 30.9611C138.62 30.9977 138.798 30.9735 138.952 30.8927C139.26 30.7249 139.521 30.4836 139.714 30.1901C139.79 30.5111 139.973 30.7963 140.233 30.9991C140.492 31.202 140.812 31.3104 141.141 31.3066C141.47 31.3028 141.788 31.187 142.042 30.9782C142.297 30.7694 142.473 30.48 142.542 30.1574C142.568 30.4853 142.719 30.7905 142.964 31.0095C143.208 31.2286 143.528 31.3444 143.855 31.3331C144.182 31.3047 144.494 31.1811 144.751 30.9773C145.009 30.7736 145.202 30.4987 145.306 30.1865C145.386 30.7784 145.59 31.3466 145.904 31.8536C146.065 32.1053 146.3 32.3011 146.575 32.4144C146.851 32.5278 147.155 32.5531 147.446 32.487C147.324 32.9902 147.331 33.5163 147.467 34.0158C147.649 34.4963 148.37 42.719 148.856 42.5516C149.342 42.3841 149.324 33.9976 149.433 33.5098C149.674 32.5742 149.796 31.6116 149.796 30.6451C149.828 29.6495 149.507 28.6748 148.889 27.8952C148.271 27.1157 147.397 26.5821 146.423 26.39C145.451 26.1661 144.453 26.0743 143.456 26.117" fill="#263238"/>
<path d="M150.416 41.0919C150.416 41.0919 150.383 41.1138 150.311 41.1393C150.209 41.1767 150.103 41.2024 149.995 41.2157C149.491 41.28 148.979 41.1991 148.518 40.9826C148.058 40.7661 147.668 40.4228 147.395 39.9927C147.024 39.3447 146.868 38.5952 146.949 37.8523C147.003 37.0697 147.185 36.3563 147.268 35.7011C147.35 35.1194 147.401 34.5338 147.42 33.9466C147.42 33.4443 147.42 33.0403 147.42 32.7563C147.405 32.6112 147.405 32.4647 147.42 32.3195C147.463 32.4627 147.489 32.6106 147.497 32.76C147.536 33.1579 147.556 33.5576 147.555 33.9575C147.554 34.5502 147.516 35.1422 147.442 35.7302C147.362 36.4 147.192 37.1171 147.137 37.8705C147.06 38.5758 147.202 39.2879 147.544 39.9089C147.842 40.4034 148.3 40.78 148.842 40.9755C149.206 41.1148 149.596 41.1744 149.984 41.1502C150.264 41.132 150.412 41.0737 150.416 41.0919Z" fill="#263238"/>
<path d="M142.39 25.6765C142.522 25.9258 142.584 26.2065 142.568 26.4883C142.581 27.178 142.321 27.8447 141.845 28.3427C141.369 28.8406 140.716 29.1292 140.029 29.1455C139.75 29.1723 139.469 29.122 139.217 28.9999C139.217 28.9671 139.529 29.0545 140.022 28.9999C140.667 28.9559 141.272 28.673 141.72 28.2062C142.169 27.7393 142.428 27.1218 142.448 26.4737C142.459 25.9896 142.358 25.6838 142.39 25.6765Z" fill="#455A64"/>
<path d="M142.891 29.7024C142.909 29.7024 142.865 29.9353 142.604 30.1901C142.431 30.3466 142.228 30.4663 142.007 30.542C141.786 30.6176 141.553 30.6478 141.32 30.6306C140.864 30.5898 140.425 30.4386 140.04 30.1901C139.746 30.0045 139.587 29.8625 139.601 29.8261C139.777 29.8816 139.945 29.9586 140.102 30.0555C140.484 30.2551 140.902 30.3787 141.331 30.4195C141.757 30.4447 142.178 30.3155 142.517 30.0555C142.782 29.888 142.869 29.6878 142.891 29.7024Z" fill="#455A64"/>
<path d="M151.105 28.6577C151.129 28.9711 151.107 29.2863 151.04 29.5932C150.937 30.3535 150.651 31.077 150.206 31.7007C149.973 32.01 149.68 32.2684 149.345 32.4599C149.009 32.6515 148.638 32.7722 148.254 32.8146C148.021 32.8356 147.786 32.8122 147.562 32.7454C147.406 32.6981 147.33 32.6508 147.333 32.6399C147.632 32.6936 147.937 32.707 148.24 32.6799C148.961 32.5624 149.61 32.1715 150.053 31.5879C150.478 30.9848 150.769 30.2971 150.906 29.5713C150.953 29.263 151.02 28.9578 151.105 28.6577Z" fill="#455A64"/>
<path d="M151.729 30.3139C151.762 30.4075 151.78 30.5058 151.783 30.6051C151.808 30.8701 151.814 31.1364 151.801 31.4023C151.782 32.298 151.463 33.161 150.895 33.852C150.574 34.2319 150.157 34.5174 149.687 34.6783C149.302 34.8047 148.891 34.8298 148.494 34.7511C148.227 34.6999 147.974 34.5933 147.75 34.438C147.598 34.3252 147.533 34.2415 147.54 34.2342C147.838 34.4242 148.169 34.5552 148.516 34.62C148.89 34.674 149.271 34.6378 149.629 34.5145C150.064 34.3531 150.452 34.0824 150.753 33.7282C151.292 33.0629 151.612 32.2466 151.671 31.3913C151.729 30.7325 151.696 30.3175 151.729 30.3139Z" fill="#455A64"/>
<path d="M103.926 74.3106L97.3433 89.4202H106.406L112.862 74.1905L103.926 74.3106Z" fill="#455A64"/>
<path d="M99.1385 58.24L106.562 72.8946H129.976L129.029 70.98L122.248 70.7762L116.717 58.422C116.549 58.0456 116.276 57.7261 115.931 57.502C115.586 57.2778 115.184 57.1587 114.773 57.1589H99.7985C99.6701 57.1543 99.5427 57.184 99.4295 57.245C99.3163 57.306 99.2212 57.3961 99.1541 57.5061C99.0869 57.616 99.0501 57.742 99.0473 57.8709C99.0446 57.9999 99.076 58.1272 99.1385 58.24Z" fill="#E0E0E0"/>
<path d="M110.864 64.8102C110.864 64.988 110.811 65.1618 110.713 65.3097C110.614 65.4575 110.474 65.5728 110.311 65.6408C110.147 65.7089 109.967 65.7267 109.793 65.692C109.619 65.6573 109.46 65.5717 109.334 65.4459C109.209 65.3202 109.124 65.16 109.089 64.9856C109.055 64.8112 109.072 64.6304 109.14 64.4661C109.208 64.3018 109.323 64.1614 109.47 64.0626C109.617 63.9638 109.791 63.9111 109.968 63.9111C110.205 63.9121 110.432 64.0071 110.6 64.1755C110.768 64.3439 110.863 64.572 110.864 64.8102Z" fill="#263238"/>
<path d="M132.471 72.9238H103.85V74.3251H132.471V72.9238Z" fill="#455A64"/>
<path d="M123.655 73.6263L132.362 89.4348H136.526L137.433 87.6257L138.267 85.722L132.471 74.3251L123.655 73.6263Z" fill="#455A64"/>
<path d="M138.785 46.5228C138.785 46.5228 133.73 48.3101 132.642 53.9885L137.98 56.6602L138.785 46.5228Z" fill="#3F72AF"/>
<path d="M138.785 46.5228C138.785 46.5228 135.249 54.4799 135.383 58.826C135.431 60.3366 136.417 64.286 136.417 64.286L138.256 74.0631C138.256 74.0631 152.331 72.1521 152.643 72.1521C152.955 72.1521 152.171 64.1259 152.171 64.1259L154.467 48.7032C154.467 48.7032 153.415 46.6029 148.664 45.8749C145.817 45.4272 138.785 46.5228 138.785 46.5228Z" fill="#3F72AF"/>
<path d="M137.451 51.142C137.483 51.1602 137.113 51.7535 136.667 52.78C136.409 53.381 136.191 53.9988 136.014 54.6291C135.803 55.4015 135.649 56.1887 135.554 56.9842C135.47 57.7809 135.445 58.5826 135.478 59.3829C135.511 60.0365 135.587 60.687 135.706 61.3303C135.909 62.4223 136.141 63.0921 136.105 63.103C136.029 62.9581 135.968 62.8056 135.924 62.648C135.859 62.4677 135.803 62.2843 135.757 62.0984C135.699 61.88 135.623 61.6361 135.572 61.3704C135.436 60.7225 135.346 60.0656 135.304 59.4048C135.26 58.5939 135.281 57.7809 135.365 56.9733C135.462 56.1668 135.623 55.3695 135.848 54.5891C136.034 53.9546 136.268 53.3353 136.548 52.7363C136.649 52.5037 136.763 52.2765 136.888 52.0556C136.975 51.8845 137.071 51.718 137.175 51.5569C137.253 51.4096 137.345 51.2706 137.451 51.142Z" fill="#263238"/>
<path d="M140.497 46.45L140.7 44.266C140.722 44.039 140.827 43.8282 140.994 43.6738C141.162 43.5194 141.38 43.4322 141.607 43.4288L148.552 43.3233C148.762 43.3208 148.966 43.3987 149.122 43.5413C149.277 43.6839 149.373 43.8805 149.39 44.0913L149.567 46.4464C148.986 47.6832 148.002 48.6846 146.778 49.2856C144.737 50.2793 141.563 50.3121 141.563 50.3121L140.497 46.45Z" fill="#3F72AF"/>
<path d="M142.314 43.447C142.336 43.447 142.234 43.589 142.191 43.811C142.151 44.1326 142.151 44.4577 142.191 44.7793C142.252 45.248 142.252 45.7228 142.191 46.1916C142.066 45.735 142.002 45.2637 142.002 44.7902C141.954 44.4531 141.968 44.1099 142.046 43.7783C142.165 43.5271 142.303 43.4288 142.314 43.447Z" fill="#263238"/>
<path d="M143.979 46.1479C143.857 45.7021 143.799 45.2414 143.805 44.7793C143.778 44.4522 143.778 44.1235 143.805 43.7965C143.841 43.5344 143.946 43.3997 143.968 43.4325C143.989 43.4652 143.935 43.5854 143.939 43.8256C143.942 44.0658 143.979 44.408 143.979 44.772C144.04 45.2286 144.04 45.6913 143.979 46.1479Z" fill="#263238"/>
<path d="M146.064 46.0897C145.914 45.6649 145.822 45.2216 145.792 44.772C145.702 44.3266 145.674 43.871 145.709 43.4179C145.86 43.846 145.952 44.2931 145.981 44.7465C146.069 45.1884 146.097 45.6402 146.064 46.0897Z" fill="#263238"/>
<path d="M147.863 46.228C147.697 45.7602 147.609 45.2684 147.602 44.772C147.532 44.2771 147.544 43.7741 147.638 43.2832C147.733 43.7629 147.784 44.2502 147.79 44.7392C147.861 45.2321 147.885 45.7305 147.863 46.228Z" fill="#263238"/>
<g opacity="0.3">
<path opacity="0.3" d="M149.241 54.5672C148.962 57.0169 149.147 61.2393 150.01 63.5507L154.064 56.8277L149.241 54.5672Z" fill="black"/>
</g>
<path d="M154.09 48.1972L154.112 48.2191C155.261 49.4304 156.102 50.9027 156.563 52.5106L157.31 55.9286L149.332 57.1662C148.892 55.7164 148.788 54.1852 149.027 52.689C149.419 50.1119 154.09 48.1972 154.09 48.1972Z" fill="#3F72AF"/>
<path d="M157.31 55.9286C157.258 55.9469 157.205 55.9603 157.151 55.9686L156.694 56.0523L154.986 56.3326L149.205 57.2135H149.103V57.1079C149.085 56.6238 149.07 56.1215 149.06 55.6046C149.041 54.2615 149.06 52.9765 149.139 51.8081C149.195 50.761 149.514 49.7452 150.068 48.8561C150.44 48.258 150.95 47.7586 151.555 47.4001C151.718 47.3027 151.89 47.2222 152.07 47.1598C152.13 47.1322 152.193 47.1138 152.258 47.1052C152.258 47.1052 152.004 47.2035 151.591 47.4692C151.016 47.8393 150.533 48.3375 150.18 48.9252C149.655 49.8088 149.356 50.8093 149.31 51.8372C149.226 52.9947 149.23 54.276 149.252 55.6192C149.252 56.1288 149.277 56.6347 149.288 57.1152L149.183 57.0242L154.986 56.2052L156.701 55.9832L157.165 55.9286C157.213 55.9223 157.262 55.9223 157.31 55.9286Z" fill="#263238"/>
<path d="M140.457 50.909C140.051 50.6717 139.678 50.3816 139.347 50.0464C138.975 49.7578 138.643 49.4198 138.361 49.0417C139.14 49.5675 139.845 50.1955 140.457 50.909Z" fill="#FAFAFA"/>
<path d="M139.38 55.1205C139.096 55.4137 138.766 55.6595 138.404 55.8485C138.072 56.09 137.706 56.2791 137.316 56.4091C137.932 55.8781 138.626 55.4459 139.373 55.1278L139.38 55.1205Z" fill="#FAFAFA"/>
<path d="M143.83 56.1579C143.765 55.6406 143.765 55.1173 143.83 54.6C143.833 54.0799 143.896 53.5619 144.019 53.0566C144.082 53.5728 144.082 54.0948 144.019 54.6109C144.017 55.1323 143.954 55.6516 143.83 56.1579Z" fill="#FAFAFA"/>
<path d="M148.157 60.3694C147.796 60.0293 147.459 59.6645 147.148 59.2774C146.792 58.9364 146.459 58.5715 146.151 58.1854C146.586 58.4389 146.971 58.7708 147.286 59.1645C147.645 59.5113 147.94 59.9193 148.157 60.3694Z" fill="#FAFAFA"/>
<path d="M148.766 51.5642C148.455 51.8892 148.099 52.1686 147.71 52.3941C147.354 52.6693 146.963 52.8946 146.546 53.0639C146.858 52.7384 147.215 52.459 147.605 52.234C147.961 51.9603 148.351 51.7351 148.766 51.5642Z" fill="#FAFAFA"/>
<path d="M144.856 48.3792C144.512 48.7153 144.124 49.003 143.703 49.2346C143.317 49.5215 142.895 49.7565 142.448 49.9335C142.793 49.5969 143.181 49.308 143.601 49.0745C143.989 48.7911 144.411 48.5575 144.856 48.3792Z" fill="#FAFAFA"/>
<path d="M148.381 49.6459C148.144 49.2936 147.958 48.9086 147.83 48.503C147.652 48.1173 147.53 47.7079 147.467 47.2872C147.708 47.6392 147.894 48.0258 148.019 48.4338C148.199 48.8174 148.322 49.226 148.381 49.6459Z" fill="#FAFAFA"/>
<path d="M153.23 51.2439C152.65 50.8403 152.147 50.3361 151.743 49.7551C152.05 49.9314 152.324 50.1606 152.552 50.4322C152.825 50.6593 153.055 50.9343 153.23 51.2439Z" fill="#FAFAFA"/>
<path d="M151.232 54.7929C151.117 54.4334 151.064 54.0566 151.076 53.6791C151.022 53.3063 151.033 52.9269 151.109 52.558C151.275 53.2906 151.317 54.0463 151.232 54.7929Z" fill="#FAFAFA"/>
<path d="M155.261 54.0576C154.839 54.1251 154.408 54.1103 153.992 54.014C153.567 53.9791 153.152 53.8642 152.77 53.6754C153.191 53.6799 153.611 53.7312 154.021 53.8283C154.441 53.8602 154.857 53.9371 155.261 54.0576Z" fill="#FAFAFA"/>
<path d="M139.014 61.3922C138.718 60.9813 138.474 60.535 138.288 60.0636C138.045 59.6188 137.858 59.1457 137.73 58.655C138.026 59.0659 138.269 59.5122 138.455 59.9836C138.699 60.428 138.887 60.9012 139.014 61.3922Z" fill="#FAFAFA"/>
<path d="M144.341 67.1361C144 66.8253 143.704 66.4689 143.46 66.0769C143.169 65.7194 142.925 65.3254 142.735 64.9048C143.076 65.2159 143.374 65.5723 143.62 65.9641C143.912 66.3199 144.155 66.7142 144.341 67.1361Z" fill="#FAFAFA"/>
<path d="M148.744 64.7265C148.371 64.9707 147.966 65.1618 147.54 65.2943C147.137 65.4853 146.708 65.6165 146.267 65.6838C147.043 65.2473 147.877 64.9249 148.744 64.7265Z" fill="#FAFAFA"/>
<path d="M137.897 69.3784C138.071 68.6916 138.364 68.041 138.764 67.4565C138.702 67.8089 138.579 68.1477 138.401 68.4575C138.288 68.7917 138.117 69.1035 137.897 69.3784Z" fill="#FAFAFA"/>
<path d="M134.484 52.9292C134.274 52.6626 134.148 52.3396 134.121 52.001C134.036 51.6729 134.051 51.3266 134.165 51.0073C134.24 51.3231 134.288 51.6445 134.31 51.9683C134.394 52.2833 134.452 52.6047 134.484 52.9292Z" fill="#FAFAFA"/>
<path d="M140.544 65.6947C140.157 65.5923 139.789 65.4263 139.456 65.2033C139.095 65.0387 138.762 64.8175 138.47 64.5481C138.856 64.6522 139.224 64.8181 139.558 65.0395C139.918 65.2068 140.25 65.4277 140.544 65.6947Z" fill="#FAFAFA"/>
<path d="M144.044 59.6305C143.449 60.3453 142.758 60.9738 141.991 61.4978C142.266 61.121 142.591 60.7831 142.956 60.4931C143.278 60.1572 143.644 59.8669 144.044 59.6305Z" fill="#FAFAFA"/>
<g opacity="0.3">
<path opacity="0.3" d="M141.901 59.5176C142.076 60.7865 142.64 61.9693 143.514 62.9028C144.421 63.791 145.825 64.2387 147.003 63.7765C147.132 63.7409 147.25 63.6747 147.348 63.5834C147.446 63.4922 147.521 63.3786 147.565 63.2523C147.585 63.0971 147.551 62.9397 147.468 62.807C147.386 62.6742 147.26 62.5743 147.112 62.5243C146.818 62.4295 146.51 62.3852 146.202 62.3932C145.322 62.3353 144.472 62.0528 143.732 61.5725C142.992 61.0921 142.386 60.4299 141.973 59.6487" fill="black"/>
</g>
<path d="M146.615 62.4515C146.615 62.4515 146.532 62.4806 146.372 62.4952C146.148 62.5179 145.922 62.5179 145.698 62.4952C145.364 62.4559 145.037 62.3777 144.722 62.2622C143.945 61.9816 143.254 61.5008 142.72 60.8681C142.503 60.6116 142.317 60.3307 142.165 60.0309C142.058 59.8311 141.974 59.6199 141.915 59.4012C141.886 59.3231 141.87 59.2406 141.868 59.1573C141.904 59.1573 142.002 59.4849 142.281 59.9654C142.445 60.2457 142.635 60.5091 142.851 60.7516C143.117 61.0466 143.415 61.3115 143.739 61.5415C144.067 61.7641 144.417 61.9508 144.784 62.0984C145.085 62.2172 145.397 62.305 145.716 62.3605C146.263 62.4406 146.615 62.4151 146.615 62.4515Z" fill="#263238"/>
<path d="M126.65 68.3192L131.902 67.704L135.605 70.1392L149.749 66.7321L150.082 57.006L156.367 56.1761V67.9515C156.332 69.3811 155.734 70.7383 154.703 71.7256C153.672 72.713 152.294 73.2499 150.869 73.2186L130.139 72.6398L129.258 70.8708L124.808 70.7361L126.65 68.3192Z" fill="#FFBE9D"/>
<path d="M149.582 66.7139C149.495 66.7487 149.405 66.7767 149.313 66.7976L148.545 66.9978L145.705 67.704L136.319 69.9863L135.445 70.1974H135.409H135.38L131.681 67.7549H131.731L126.476 68.3665L126.513 68.3446L125.12 70.1173L124.757 70.5832C124.717 70.639 124.671 70.6903 124.62 70.7361C124.653 70.6767 124.691 70.6195 124.732 70.565L125.095 70.0845L126.444 68.2864H126.465L131.713 67.6275H131.742H131.764L135.47 70.0591H135.405L136.279 69.8479L145.676 67.613L148.53 66.9541L149.306 66.7831C149.396 66.7528 149.488 66.7297 149.582 66.7139Z" fill="#EB996E"/>
<path d="M129.519 69.8297C128.842 69.9093 128.159 69.9361 127.477 69.9098H127.115L127.165 69.8916C126.755 70.2701 126.312 70.6112 125.842 70.9108C126.216 70.4966 126.623 70.1143 127.06 69.7679L127.082 69.746H127.485C128.164 69.718 128.844 69.746 129.519 69.8297Z" fill="#EB996E"/>
<path d="M152.189 68.3046C151.919 67.8764 151.568 67.5055 151.156 67.2126C150.719 66.9646 150.237 66.8062 149.738 66.7467C149.885 66.6956 150.042 66.6831 150.195 66.7103C150.565 66.7495 150.921 66.8741 151.236 67.0742C151.55 67.2744 151.815 67.5447 152.008 67.8641C152.106 67.9924 152.168 68.1443 152.189 68.3046Z" fill="#EB996E"/>
<path d="M61.4901 146.062H37.808V149.327H61.4901V146.062Z" fill="#263238"/>
<path d="M61.5301 149.371H37.7681V146.022H61.5301V149.371ZM37.8479 149.287H61.4503V146.102H37.8479V149.287Z" fill="#263238"/>
<path d="M40.0057 148.243L43.4112 165.121H56.0247L59.3214 149.331L40.0057 148.243Z" fill="#263238"/>
<path d="M40.0057 163.523L41.8227 166.035H57.1526L59.3214 163.523H40.0057Z" fill="#455A64"/>
<path d="M48.7605 148.734C48.7134 148.734 48.6554 140.915 48.6263 131.262C48.5973 121.609 48.6263 113.79 48.6626 113.79C48.6989 113.79 48.7678 121.609 48.7968 131.262C48.8258 140.915 48.8077 148.734 48.7605 148.734Z" fill="#263238"/>
<path d="M54.0373 129.165C54.0215 129.228 53.9996 129.289 53.972 129.347C53.9176 129.482 53.8451 129.65 53.7616 129.853C53.7145 129.966 53.6637 130.086 53.6057 130.217C53.5477 130.348 53.5042 130.505 53.4498 130.661L53.2648 131.171C53.2031 131.353 53.1524 131.535 53.0907 131.753C52.8093 132.709 52.5877 133.682 52.427 134.665C52.245 135.872 52.124 137.087 52.0644 138.305C51.9787 140.523 52.0417 142.743 52.253 144.952C52.3291 145.804 52.4053 146.488 52.4633 146.961C52.4851 147.183 52.5068 147.365 52.5213 147.507C52.5262 147.572 52.5262 147.636 52.5213 147.7C52.4985 147.639 52.4838 147.576 52.4778 147.511C52.4524 147.369 52.4234 147.191 52.3871 146.972C52.311 146.499 52.2131 145.815 52.1224 144.967C51.8758 142.753 51.797 140.524 51.8867 138.298C51.9404 137.073 52.0615 135.852 52.2493 134.64C52.4171 133.654 52.6521 132.681 52.9529 131.728C53.0182 131.524 53.0726 131.328 53.1379 131.149L53.3337 130.64L53.5078 130.199C53.5658 130.064 53.6238 129.948 53.6746 129.835L53.9176 129.34C53.948 129.276 53.9884 129.217 54.0373 129.165Z" fill="#263238"/>
<path d="M53.4317 122.843C53.4116 122.93 53.3862 123.017 53.3555 123.101C53.2939 123.28 53.2105 123.523 53.1089 123.829L52.9276 124.353C52.8696 124.55 52.8043 124.761 52.7354 124.987C52.5976 125.438 52.438 125.951 52.2965 126.53L52.0572 127.436C51.9846 127.753 51.9121 128.084 51.836 128.423C51.6691 129.104 51.5494 129.842 51.3971 130.607C51.136 132.157 50.9075 133.883 50.748 135.685C50.5884 137.486 50.534 139.23 50.5122 140.806C50.4905 142.382 50.5122 143.802 50.592 144.992C50.6101 145.589 50.65 146.124 50.6791 146.597C50.7081 147.071 50.7371 147.478 50.7661 147.809C50.7951 148.141 50.8096 148.385 50.8241 148.578C50.829 148.666 50.829 148.755 50.8241 148.843C50.8008 148.758 50.7862 148.67 50.7806 148.581C50.7588 148.388 50.7298 148.137 50.6899 147.817C50.65 147.496 50.6101 147.089 50.5739 146.605C50.5376 146.121 50.4905 145.596 50.4614 144.999C50.3817 143.805 50.349 142.386 50.3454 140.806C50.3418 139.226 50.4179 137.49 50.5703 135.674C50.7226 133.857 50.9656 132.136 51.2339 130.578C51.3899 129.802 51.5168 129.063 51.6873 128.394C51.767 128.052 51.8468 127.72 51.9194 127.404L52.1696 126.501C52.3183 125.922 52.4888 125.409 52.6374 124.958C52.71 124.732 52.7789 124.524 52.8405 124.328C52.9022 124.131 52.9747 123.964 53.0364 123.807L53.312 123.079C53.3429 122.996 53.383 122.917 53.4317 122.843Z" fill="#263238"/>
<path d="M47.2628 150.117C47.259 150.087 47.259 150.056 47.2628 150.026C47.2628 149.957 47.2628 149.87 47.241 149.757C47.2229 149.509 47.2011 149.164 47.1721 148.723C47.1141 147.809 47.0343 146.514 46.9327 144.912C46.7296 141.698 46.4323 137.268 45.8919 132.372C45.6163 129.926 45.2971 127.607 44.9635 125.504C44.7894 124.455 44.6298 123.458 44.4448 122.526C44.2599 121.594 44.0822 120.732 43.9371 119.942C43.792 119.152 43.6071 118.446 43.4656 117.823C43.3242 117.201 43.1973 116.662 43.103 116.225C43.0087 115.788 42.918 115.461 42.8564 115.217C42.8346 115.111 42.8128 115.024 42.7983 114.955C42.7927 114.925 42.7927 114.894 42.7983 114.864C42.8133 114.891 42.8243 114.921 42.831 114.951L42.9035 115.21C42.9724 115.45 43.0631 115.785 43.1828 116.211C43.3024 116.637 43.4439 117.175 43.5926 117.801C43.7413 118.427 43.9226 119.13 44.0858 119.92C44.249 120.71 44.4485 121.569 44.6153 122.501C44.7821 123.432 44.978 124.43 45.152 125.482C45.4929 127.586 45.8157 129.908 46.0913 132.35C46.6317 137.243 46.911 141.687 47.0851 144.905C47.1721 146.517 47.2337 147.817 47.27 148.719C47.27 149.16 47.299 149.506 47.3063 149.757C47.3063 149.866 47.3063 149.957 47.3063 150.026C47.2964 150.059 47.2817 150.089 47.2628 150.117Z" fill="#263238"/>
<path d="M48.5684 117.572C48.4632 116.48 47.3498 115.628 46.24 115.617C45.685 115.642 45.1428 115.793 44.6545 116.059C44.1663 116.325 43.7448 116.699 43.4221 117.153C42.7838 118.067 42.3224 119.093 42.0621 120.178C41.315 122.788 40.9088 125.529 41.228 128.226C41.5471 130.924 42.6351 133.577 44.5645 135.481C44.8764 135.794 45.2899 136.103 45.7142 136.009C45.9438 135.941 46.1523 135.816 46.3198 135.645C48.2082 133.909 49.7049 131.789 50.7095 129.425C51.7141 127.061 52.2033 124.509 52.1443 121.94C52.1152 120.917 51.9811 119.847 51.4189 118.995C50.8568 118.143 49.5331 117.233 48.572 117.576" fill="#3F72AF"/>
<path d="M40.2886 108.69L38.7292 111.53C38.6929 111.595 38.6457 111.672 38.5696 111.675C38.4934 111.679 38.4245 111.606 38.381 111.537L34.2538 105.196L35.204 104.654L40.2886 108.69Z" fill="#3F72AF"/>
<g opacity="0.2">
<path opacity="0.2" d="M40.2886 108.69L38.7292 111.53C38.6929 111.595 38.6457 111.672 38.5696 111.675C38.4934 111.679 38.4245 111.606 38.381 111.537L34.2538 105.196L35.204 104.654L40.2886 108.69Z" fill="black"/>
</g>
<path d="M48.6626 113.805L34.5839 105.465C34.5038 105.434 34.4305 105.388 34.3682 105.329C34.306 105.269 34.2561 105.198 34.2212 105.12C34.1668 104.912 34.3228 104.708 34.4715 104.552C35.4402 103.544 36.6137 102.758 37.9122 102.246C39.2107 101.734 40.6038 101.509 41.9968 101.585C43.3892 101.686 44.7363 102.125 45.9217 102.865C47.1071 103.605 48.0951 104.624 48.8004 105.833C50.1568 108.268 50.2039 111.493 48.6445 113.805" fill="#3F72AF"/>
<path d="M36.6293 102.805C36.6895 102.788 36.7519 102.78 36.8143 102.783C36.934 102.783 37.1153 102.754 37.3474 102.757C38.0011 102.748 38.6542 102.8 39.2986 102.91C40.2586 103.075 41.1942 103.36 42.0838 103.758C43.6192 104.452 44.9828 105.477 46.0769 106.762C47.171 108.046 47.9686 109.557 48.4124 111.187C48.5941 111.82 48.7155 112.468 48.775 113.124C48.8041 113.353 48.7968 113.535 48.8041 113.659C48.8103 113.721 48.8103 113.783 48.8041 113.845C48.8041 113.845 48.7714 113.59 48.7134 113.117C48.6331 112.47 48.5009 111.831 48.3181 111.206C47.7277 109.131 46.5696 107.264 44.9754 105.816C43.3811 104.368 41.4144 103.398 39.2986 103.016C38.6609 102.894 38.0144 102.825 37.3655 102.808C36.8687 102.812 36.6293 102.819 36.6293 102.805Z" fill="#263238"/>
<path d="M46.755 108.05C46.5281 108.189 46.2843 108.297 46.0297 108.374C45.58 108.552 44.9417 108.778 44.2526 109.003C43.5635 109.229 42.9107 109.404 42.4393 109.52C42.1891 109.597 41.9312 109.646 41.6704 109.666C41.9024 109.553 42.1455 109.465 42.3957 109.404L44.1873 108.84L45.9753 108.261C46.2276 108.165 46.4888 108.094 46.755 108.05Z" fill="#263238"/>
<path d="M44.539 102.073C44.665 102.588 44.7212 103.118 44.7058 103.649C44.7472 104.178 44.718 104.711 44.6188 105.232C44.5508 104.709 44.5241 104.181 44.539 103.653C44.4976 103.127 44.4976 102.599 44.539 102.073Z" fill="#263238"/>
<path d="M34.4534 105.309C34.7828 105.157 35.125 105.035 35.4761 104.945C36.1144 104.745 37.0065 104.493 38.0148 104.253C39.023 104.013 39.9151 103.831 40.5534 103.715C40.9112 103.634 41.2752 103.586 41.6414 103.569C41.2971 103.68 40.9458 103.768 40.5897 103.831C39.9369 103.977 39.0375 104.195 38.051 104.421C37.0646 104.646 36.1688 104.89 35.5124 105.058C35.1653 105.165 34.8115 105.249 34.4534 105.309Z" fill="#263238"/>
<path d="M42.1709 114.944C40.9596 114.023 39.6793 113.852 38.1598 113.899C36.64 113.996 35.1516 114.378 33.7715 115.024C31.396 116.065 29.1656 117.605 27.7476 119.781C26.3296 121.958 25.8327 124.841 26.8953 127.214C26.979 127.463 27.1506 127.671 27.3777 127.8C27.6414 127.874 27.9227 127.852 28.1719 127.739C30.8738 126.854 33.5902 125.962 36.0744 124.579C38.5587 123.196 40.8181 121.27 42.1491 118.755C42.4899 118.168 42.7095 117.518 42.7946 116.844C42.831 116.503 42.7944 116.158 42.6875 115.832C42.5806 115.507 42.4057 115.207 42.1745 114.955" fill="#3F72AF"/>
<path d="M42.1926 114.66C42.1321 114.695 42.0675 114.722 42.0004 114.74L41.4346 114.937L41.0248 115.071C40.8761 115.126 40.7165 115.191 40.5461 115.261C40.2052 115.399 39.8208 115.537 39.3892 115.741L38.7291 116.043C38.497 116.149 38.2685 116.28 38.0256 116.407C37.536 116.647 37.0427 116.957 36.5132 117.27C34.2517 118.677 32.2392 120.452 30.5583 122.522C30.1956 123.007 29.8148 123.462 29.5138 123.92C29.3578 124.146 29.2019 124.357 29.0641 124.572L28.7014 125.191C28.4475 125.58 28.2589 125.959 28.0776 126.283C27.9906 126.443 27.9035 126.592 27.831 126.734C27.7585 126.876 27.7004 127.003 27.646 127.123L27.3777 127.662C27.3524 127.727 27.3182 127.788 27.2761 127.844C27.2938 127.776 27.3181 127.71 27.3487 127.648L27.5844 127.094C27.6388 126.974 27.6968 126.843 27.7585 126.697C27.8201 126.552 27.9108 126.403 27.9942 126.239C28.1683 125.908 28.3569 125.511 28.5962 125.129C28.7195 124.928 28.8428 124.717 28.9589 124.499C29.0749 124.281 29.249 124.069 29.4013 123.84C29.6987 123.374 30.065 122.916 30.4386 122.424C31.2838 121.381 32.2103 120.408 33.2093 119.512C34.2195 118.631 35.2989 117.834 36.4371 117.128C36.9702 116.815 37.4707 116.509 37.9639 116.273C38.2105 116.149 38.4426 116.021 38.6892 115.909L39.3602 115.617C39.7845 115.417 40.1834 115.286 40.5316 115.155C40.7057 115.093 40.8652 115.031 41.0176 114.98L41.431 114.857L42.0076 114.693C42.0684 114.677 42.1302 114.666 42.1926 114.66Z" fill="#263238"/>
<path d="M32.7343 119.8C31.7701 120.168 30.7871 120.485 29.7895 120.75C28.8068 121.07 27.8066 121.334 26.7938 121.54C27.758 121.171 28.741 120.854 29.7387 120.59C30.7219 120.271 31.722 120.007 32.7343 119.8Z" fill="#263238"/>
<path d="M32.611 126.308C32.5615 126.004 32.5397 125.695 32.5457 125.387C32.5457 124.819 32.5457 124.029 32.5457 123.163C32.5457 122.297 32.6183 121.507 32.6654 120.939C32.6728 120.63 32.7117 120.323 32.7815 120.022C32.8059 120.329 32.8059 120.639 32.7815 120.946C32.7597 121.569 32.7379 122.326 32.7126 123.167C32.6872 124.008 32.6727 124.765 32.6545 125.387C32.6681 125.695 32.6535 126.003 32.611 126.308Z" fill="#263238"/>
<path d="M38.1816 123.476C38.1344 123.476 37.9857 121.878 37.8515 119.902C37.7173 117.925 37.6412 116.32 37.6883 116.32C37.7355 116.32 37.8805 117.914 38.0184 119.891C38.1562 121.867 38.2287 123.472 38.1816 123.476Z" fill="#263238"/>
<path d="M31.251 116.163C31.5637 116.124 31.8794 116.114 32.1939 116.134C32.7742 116.134 33.5793 116.156 34.4678 116.185C35.3564 116.214 36.1579 116.251 36.7381 116.283C37.0532 116.288 37.3674 116.318 37.6774 116.374C37.3647 116.414 37.049 116.424 36.7345 116.404C36.1542 116.404 35.3491 116.385 34.4606 116.353C33.572 116.32 32.7706 116.287 32.1867 116.254C31.8728 116.251 31.5597 116.22 31.251 116.163Z" fill="#263238"/>
<path d="M45.1701 136.238C45.154 136.174 45.1467 136.108 45.1484 136.041C45.1484 135.899 45.1484 135.714 45.123 135.488C45.1012 135.004 45.0976 134.309 45.123 133.442C45.1484 132.576 45.1955 131.553 45.2971 130.418C45.3986 129.282 45.5654 128.033 45.7939 126.734C46.0224 125.434 46.3053 124.215 46.5918 123.094C46.8783 121.973 47.1902 121.008 47.4731 120.182C47.7559 119.356 47.9953 118.726 48.1984 118.267C48.2854 118.056 48.3544 117.903 48.4124 117.754C48.4346 117.693 48.4625 117.635 48.4958 117.579C48.4878 117.644 48.4695 117.706 48.4414 117.765L48.2347 118.3C48.0678 118.751 47.8394 119.392 47.5746 120.229C47.3099 121.066 47.0197 122.049 46.7332 123.141C46.4467 124.233 46.1784 125.463 45.9462 126.759C45.7141 128.055 45.5582 129.307 45.4421 130.425C45.3261 131.542 45.2608 132.58 45.2318 133.439C45.2028 134.298 45.1846 134.997 45.1846 135.481C45.1846 135.706 45.1846 135.888 45.1846 136.034C45.1846 136.102 45.1797 136.17 45.1701 136.238Z" fill="#263238"/>
<path d="M45.9099 126.596C45.7453 126.822 45.5568 127.029 45.3478 127.214C44.9851 127.578 44.4665 128.066 43.879 128.587C43.2915 129.107 42.7366 129.555 42.3268 129.872C42.1171 130.055 41.8886 130.214 41.645 130.348C41.8295 130.139 42.0335 129.948 42.2542 129.777L43.7666 128.459L45.268 127.127C45.4646 126.93 45.6796 126.752 45.9099 126.596Z" fill="#263238"/>
<path d="M50.3671 130.196C50.1466 129.935 49.9465 129.657 49.7687 129.366L48.3797 127.327L46.9581 125.311C46.7472 125.041 46.5569 124.757 46.3887 124.459C46.6341 124.697 46.8563 124.958 47.0524 125.238C47.444 125.737 47.9663 126.435 48.503 127.233C49.0398 128.03 49.5257 128.761 49.8558 129.3C50.0537 129.582 50.225 129.882 50.3671 130.196Z" fill="#263238"/>
<path d="M48.0316 118.864C48.057 118.904 46.5809 119.905 44.7277 121.099C42.8744 122.293 41.3549 123.232 41.3295 123.192C41.3041 123.152 42.7802 122.151 44.637 120.957C46.4939 119.763 48.0098 118.828 48.0316 118.864Z" fill="#263238"/>
<path d="M52.2239 123.396C51.4424 122.743 50.6955 122.049 49.9863 121.318C49.2395 120.629 48.5312 119.9 47.8647 119.134C48.649 119.785 49.3972 120.479 50.106 121.212C50.8532 121.899 51.5604 122.628 52.2239 123.396Z" fill="#263238"/>
<path d="M53.2576 123.298L54.5269 123.192C55.4296 123.118 56.3055 122.848 57.0946 122.402C57.4808 122.176 57.8805 121.975 58.2914 121.798C59.8617 121.168 61.617 121.281 63.3071 121.194C66.0761 121.054 68.7891 120.358 71.2857 119.148C71.4357 119.082 71.5621 118.971 71.6484 118.831C71.9095 118.355 71.4235 117.929 71.0065 117.67C68.8631 116.345 66.6835 115.006 64.2572 114.347C61.831 113.688 59.0711 113.801 57.0039 115.231C54.574 116.913 53.6855 120.364 53.2757 123.298" fill="#3F72AF"/>
<path d="M71.6592 118.664C71.5861 118.634 71.5147 118.6 71.4453 118.562L70.8432 118.245C70.321 117.969 69.5703 117.561 68.6165 117.106C67.5118 116.558 66.3598 116.112 65.1748 115.774C63.7256 115.356 62.2078 115.232 60.7103 115.41C59.2108 115.577 57.7945 116.188 56.6412 117.164C55.7404 118.004 55.0198 119.02 54.5233 120.149C54.0772 121.106 53.7979 121.922 53.6021 122.475L53.3736 123.119C53.3511 123.196 53.322 123.27 53.2866 123.341C53.297 123.262 53.3152 123.184 53.341 123.108C53.3917 122.945 53.457 122.726 53.5368 122.457C53.7788 121.662 54.067 120.881 54.3999 120.12C54.8886 118.965 55.6125 117.924 56.5252 117.066C57.6947 116.055 59.1404 115.421 60.6741 115.246C62.1918 115.062 63.731 115.186 65.2002 115.61C66.3919 115.961 67.5488 116.422 68.6564 116.986C69.6029 117.459 70.3464 117.881 70.8614 118.176L71.4489 118.522C71.5247 118.56 71.5954 118.608 71.6592 118.664Z" fill="#263238"/>
<path d="M68.6092 120.32C68.5838 120.357 66.9192 119.279 64.8955 117.911C62.8718 116.542 61.2507 115.399 61.2688 115.362C61.287 115.326 62.9552 116.404 64.9789 117.772C67.0026 119.141 68.6346 120.28 68.6092 120.32Z" fill="#263238"/>
<path d="M67.0136 115.199C66.1667 115.466 65.2728 115.549 64.3915 115.443C64.8225 115.353 65.2606 115.301 65.7007 115.29C66.1349 115.221 66.5741 115.191 67.0136 115.199Z" fill="#263238"/>
<path d="M59.5607 113.859C59.2436 114.613 58.8277 115.32 58.324 115.963C58.4538 115.575 58.637 115.208 58.868 114.871C59.0499 114.503 59.2832 114.162 59.5607 113.859Z" fill="#263238"/>
<path d="M61.0477 121.303C60.7673 121.186 60.4999 121.039 60.2498 120.866C59.7675 120.575 59.1183 120.138 58.4365 119.64C57.7547 119.141 57.1345 118.657 56.6921 118.307C56.4444 118.132 56.2137 117.933 56.003 117.714C56.2725 117.855 56.5276 118.022 56.7646 118.213L58.538 119.505C59.2271 120.007 59.8618 120.448 60.326 120.768C60.5816 120.925 60.8231 121.104 61.0477 121.303Z" fill="#263238"/>
<path d="M55.1253 128.718C53.914 128.394 52.467 129.577 52.224 130.811C51.981 132.045 52.438 133.304 52.9747 134.451C54.1297 136.997 55.8431 139.248 57.9868 141.035C60.149 142.815 62.8468 143.809 65.6427 143.856C65.1313 141.469 65.7769 138.972 65.494 136.544C65.2413 134.405 64.2733 132.416 62.7483 130.901C61.2233 129.387 59.2314 128.436 57.0982 128.204C56.3258 128.121 55.43 128.001 55.1217 128.718" fill="#3F72AF"/>
<path d="M65.6427 143.856C65.5819 143.836 65.5235 143.809 65.4686 143.776C65.3098 143.686 65.1582 143.584 65.0153 143.471C64.5073 143.027 64.0994 142.48 63.8185 141.865C63.6263 141.501 63.4087 141.079 63.1983 140.624C62.988 140.169 62.7776 139.689 62.5455 139.168C62.3129 138.635 62.0451 138.118 61.744 137.621C61.4211 137.091 61.0573 136.587 60.656 136.114C59.8291 135.139 58.937 134.294 58.1645 133.482C57.4661 132.776 56.8302 132.01 56.2641 131.193C55.8849 130.639 55.5732 130.041 55.3357 129.413C55.2595 129.191 55.2015 129.013 55.1725 128.892C55.1524 128.832 55.1402 128.77 55.1362 128.707C55.1362 128.707 55.2196 128.954 55.3974 129.391C55.656 130.003 55.9794 130.585 56.362 131.127C56.939 131.927 57.5794 132.678 58.2769 133.373C59.053 134.174 59.9488 135.019 60.7866 136.005C61.1971 136.484 61.5694 136.996 61.9 137.534C62.1998 138.039 62.4675 138.563 62.7015 139.103L63.3398 140.559C63.5428 141.01 63.7532 141.425 63.9418 141.8C64.2065 142.409 64.5914 142.957 65.0733 143.412C65.4215 143.725 65.6608 143.842 65.6427 143.856Z" fill="#263238"/>
<path d="M59.3793 141.873C59.3866 141.596 59.4243 141.322 59.4918 141.054C59.5861 140.551 59.742 139.863 59.9523 139.114C60.1627 138.364 60.3875 137.698 60.5689 137.221C60.6483 136.956 60.7591 136.702 60.8989 136.464C60.8499 136.734 60.7771 137 60.6813 137.257C60.529 137.745 60.3186 138.415 60.1155 139.161C59.9125 139.907 59.7529 140.584 59.6078 141.079C59.5578 141.351 59.4813 141.616 59.3793 141.873Z" fill="#263238"/>
<path d="M65.4214 136.009C65.131 135.966 64.8448 135.899 64.5655 135.808C64.0433 135.674 63.3215 135.484 62.5201 135.302C61.7186 135.12 60.986 134.982 60.4565 134.88C60.1661 134.843 59.8797 134.78 59.6006 134.691C59.8937 134.683 60.1867 134.708 60.4746 134.764C61.0114 134.833 61.7512 134.957 62.5563 135.128C63.3614 135.299 64.0831 135.517 64.5981 135.685C64.883 135.764 65.1589 135.872 65.4214 136.009Z" fill="#263238"/>
<path d="M54.8823 137.712C54.896 137.392 54.9397 137.074 55.0129 136.762C55.1217 136.183 55.2885 135.383 55.517 134.513C55.7455 133.643 55.9848 132.86 56.1734 132.299C56.2665 131.992 56.3879 131.693 56.5361 131.408C56.4834 131.723 56.4058 132.033 56.304 132.336C56.1444 132.904 55.9196 133.686 55.6947 134.553C55.4698 135.419 55.2813 136.216 55.1471 136.788C55.0852 137.103 54.9966 137.412 54.8823 137.712Z" fill="#263238"/>
<path d="M62.6398 130.898C62.6398 130.942 61.1202 130.822 59.2597 130.621C57.3992 130.421 55.8905 130.225 55.8978 130.181C57.0284 130.214 58.1566 130.305 59.2778 130.454C60.4053 130.544 61.5274 130.693 62.6398 130.898Z" fill="#263238"/>
<path d="M61.5301 149.316C61.5301 149.364 56.2097 149.4 49.6491 149.4C43.0884 149.4 37.7681 149.364 37.7681 149.316C37.7681 149.269 43.0884 149.233 49.6491 149.233C56.2097 149.233 61.5301 149.269 61.5301 149.316Z" fill="#455A64"/>
<path d="M57.8308 156.185C57.8308 156.232 54.244 156.272 49.8231 156.272C45.4022 156.272 41.8191 156.232 41.8191 156.185C41.8191 156.138 45.4022 156.101 49.8231 156.101C54.244 156.101 57.8308 156.156 57.8308 156.185Z" fill="#455A64"/>
<path d="M57.9686 157.168C57.9686 157.215 54.3855 157.252 49.9646 157.252C45.5437 157.252 41.9605 157.215 41.9605 157.168C41.9605 157.121 45.5437 157.084 49.9646 157.084C54.3855 157.084 57.9686 157.121 57.9686 157.168Z" fill="#455A64"/>
<path d="M57.9686 155.377C57.9686 155.424 54.2621 155.461 49.6889 155.461C45.1157 155.461 41.4092 155.424 41.4092 155.377C41.4092 155.33 45.1157 155.293 49.6889 155.293C54.2621 155.293 57.9686 155.33 57.9686 155.377Z" fill="#455A64"/>
</svg>
